<?xml version="1.0" encoding="utf-8"?>
<!-- Generator: Adobe Illustrator 22.1.0, SVG Export Plug-In . SVG Version: 6.00 Build 0)  -->
<svg version="1.1" id="Layer_1" xmlns="http://www.w3.org/2000/svg" xmlns:xlink="http://www.w3.org/1999/xlink" x="0px" y="0px"
	 viewBox="0 0 100 100" style="enable-background:new 0 0 100 100;" xml:space="preserve">
<style type="text/css">
	.st0{fill:#005B9B;}
	.st1{fill:#515151;}
</style>
<g>
	<path class="st0" d="M11.5,31.6c0,2.2-1.8,3.9-3.9,3.9c-2.2,0-3.9-1.8-3.9-3.9s1.8-3.9,3.9-3.9C9.7,27.7,11.5,29.4,11.5,31.6
		 M35.8,31.6c0,2.2-1.8,3.9-3.9,3.9c-2.2,0-3.9-1.8-3.9-3.9s1.8-3.9,3.9-3.9C34,27.7,35.8,29.4,35.8,31.6 M24,30.9
		c0,2.4-1.9,4.3-4.3,4.3c-2.4,0-4.3-1.9-4.3-4.3c0-2.4,1.9-4.3,4.3-4.3C22.1,26.7,24,28.6,24,30.9 M33.2,62.7
		c-6.6-0.1-13.2,1.4-13.5,1.5v-4.5c0.3,0,6.9-1.6,13.5-1.5c1,0,2,0,2.9,0v-4.5c-1,0-1.9-0.1-2.9,0c-6.6-0.1-13.2,1.4-13.5,1.5v4.5
		c-0.3,0-6.9-1.6-13.5-1.5c-1,0-2,0-2.9,0v2.4c0,0,1.6,7.5,16.4,12.7c10-3.5,14-8.1,15.5-10.6C34.5,62.7,33.9,62.7,33.2,62.7
		 M6.3,44.7c6.6-0.1,13.2,1.4,13.5,1.5v4.5c-0.3,0-6.9-1.6-13.5-1.5c-1,0-2,0-2.9,0v4.5c1,0,1.9-0.1,2.9,0
		c6.6-0.1,13.2,1.4,13.5,1.5v-4.5c0.3,0,6.9-1.6,13.5-1.5c1,0,2,0,2.9,0V38.9c-0.3,0-8.4-1.9-16.4-1.8c-8-0.2-16.1,1.8-16.4,1.8v5.8
		C4.3,44.7,5.3,44.6,6.3,44.7"/>
	<path class="st0" d="M47.3,59h-4.4l8.5-21.5h3.3c0.9,0,1.6,0.5,1.9,1.3L64.4,59h-6l-1-3.1h-7.5l-0.5,1.7C49,58.5,48.2,59,47.3,59
		 M53.5,44.1l-2.3,7.5h4.7L53.5,44.1z M68.7,37.6h3.4V57c0,1.2-0.9,2.1-2.1,2.1h-3.4V39.6C66.6,38.5,67.5,37.6,68.7,37.6 M89.9,44.8
		c-0.3-0.5-0.7-1-1.1-1.5c-0.9-0.8-2.1-1.3-3.6-1.3c-2.7,0-5.9,2-5.9,6.2c0,4.5,3.2,6.4,5.9,6.4c1.4,0,2.5-0.3,3.4-1
		c0.9-0.6,1.5-1.5,1.8-2.5H86c-1.2,0-2.1-0.9-2.1-2.1v-2.3h12.7c0.1,1.5-0.1,4.1-1,6.2c-2.1,4.7-6.9,6.5-10.5,6.5
		c-6.5,0-11.4-5.1-11.4-11.3c0-6.4,5.2-11.1,11.5-11.1c5.1,0,9.6,3.5,10.7,7.6H89.9z"/>
	<path class="st1" d="M95.4,63.1c-0.1-0.2-0.3-0.3-0.6-0.4c-0.2-0.1-0.5-0.1-0.7-0.1l-0.4,0.1l-0.4,0.2L93,63l-0.1,0.4
		c0,0.2,0.1,0.4,0.3,0.6c0.2,0.1,0.4,0.2,0.6,0.3c0.3,0.1,0.5,0.2,0.8,0.3c0.3,0.1,0.6,0.2,0.8,0.4c0.3,0.2,0.5,0.4,0.6,0.6
		c0.2,0.3,0.3,0.6,0.3,1c0,0.4-0.1,0.7-0.2,1c-0.1,0.3-0.3,0.5-0.6,0.7c-0.2,0.2-0.5,0.3-0.9,0.4C94.4,69,94,69,93.7,69
		c-0.5,0-0.9-0.1-1.3-0.2c-0.4-0.2-0.8-0.4-1.1-0.8l1-1c0.2,0.2,0.4,0.4,0.6,0.6c0.3,0.1,0.5,0.2,0.8,0.2l0.5-0.1l0.4-0.2l0.3-0.3
		c0.1-0.1,0.1-0.3,0.1-0.4c0-0.3-0.1-0.5-0.3-0.6c-0.2-0.1-0.4-0.3-0.6-0.4c-0.3-0.1-0.5-0.2-0.8-0.3c-0.3-0.1-0.6-0.2-0.8-0.4
		c-0.3-0.2-0.5-0.4-0.6-0.6c-0.2-0.3-0.3-0.6-0.3-1c0-0.4,0.1-0.7,0.2-1c0.2-0.3,0.4-0.5,0.6-0.7c0.3-0.2,0.5-0.3,0.9-0.4
		c0.3-0.1,0.7-0.1,1-0.1c0.4,0,0.8,0.1,1.1,0.2c0.4,0.1,0.7,0.3,1,0.6L95.4,63.1z M86.4,61.5h1.3v6.1h3.1v1.2h-4.4V61.5z M81.3,61.5
		h1.1l3.2,7.3h-1.5l-0.7-1.7h-3.2l-0.7,1.7h-1.5L81.3,61.5z M83,66.1l-1.1-3l-1.1,3H83z M75.5,62.7h-2.2v-1.2H79v1.2h-2.2v6.1h-1.3
		V62.7z M71,61.5h1.3v7.3H71V61.5z M64.8,61.5h2.5c0.4,0,0.7,0,1,0.1c0.3,0.1,0.6,0.2,0.9,0.3c0.2,0.2,0.4,0.4,0.6,0.7
		c0.1,0.3,0.2,0.6,0.2,1c0,0.5-0.1,0.8-0.2,1.1c-0.2,0.3-0.4,0.5-0.6,0.7c-0.3,0.2-0.6,0.3-0.9,0.3c-0.4,0.1-0.7,0.1-1.1,0.1h-0.9v3
		h-1.3V61.5z M66.9,64.7c0.2,0,0.4,0,0.6,0c0.2,0,0.4-0.1,0.6-0.1c0.2-0.1,0.3-0.2,0.4-0.3c0.1-0.1,0.2-0.3,0.2-0.6
		c0-0.2,0-0.4-0.1-0.5L68,62.8c-0.2-0.1-0.3-0.1-0.5-0.1c-0.2,0-0.4,0-0.5,0h-0.9v2.1H66.9z M62.4,63.1c-0.1-0.2-0.3-0.3-0.6-0.4
		c-0.2-0.1-0.5-0.1-0.7-0.1l-0.4,0.1l-0.4,0.2L60,63l-0.1,0.4c0,0.2,0.1,0.4,0.3,0.6c0.2,0.1,0.4,0.2,0.6,0.3
		c0.3,0.1,0.5,0.2,0.8,0.3c0.3,0.1,0.6,0.2,0.8,0.4c0.3,0.2,0.5,0.4,0.6,0.6c0.2,0.3,0.3,0.6,0.3,1c0,0.4-0.1,0.7-0.2,1
		c-0.1,0.3-0.3,0.5-0.6,0.7c-0.2,0.2-0.5,0.3-0.9,0.4c-0.3,0.1-0.7,0.1-1,0.1c-0.5,0-0.9-0.1-1.3-0.2c-0.4-0.2-0.8-0.4-1.1-0.8l1-1
		c0.2,0.2,0.4,0.4,0.6,0.6c0.3,0.1,0.5,0.2,0.8,0.2l0.5-0.1l0.4-0.2l0.3-0.3l0.1-0.4c0-0.3-0.1-0.5-0.3-0.6
		c-0.2-0.1-0.4-0.3-0.6-0.4c-0.3-0.1-0.5-0.2-0.8-0.3c-0.3-0.1-0.6-0.2-0.8-0.4c-0.3-0.2-0.5-0.4-0.6-0.6c-0.2-0.3-0.3-0.6-0.3-1
		c0-0.4,0.1-0.7,0.2-1c0.2-0.3,0.4-0.5,0.6-0.7c0.3-0.2,0.5-0.3,0.9-0.4c0.3-0.1,0.7-0.1,1-0.1c0.4,0,0.8,0.1,1.1,0.2
		c0.4,0.1,0.7,0.3,1,0.6L62.4,63.1z M49.8,65.2c0-0.6,0.1-1.1,0.3-1.6c0.2-0.5,0.5-0.9,0.8-1.2c0.3-0.3,0.7-0.6,1.2-0.8
		c0.5-0.2,1-0.3,1.6-0.3c0.6,0,1.1,0.1,1.6,0.3c0.5,0.2,0.9,0.4,1.2,0.8c0.3,0.3,0.6,0.7,0.8,1.2c0.2,0.5,0.3,1,0.3,1.6
		c0,0.6-0.1,1.1-0.3,1.6c-0.2,0.5-0.5,0.9-0.8,1.2c-0.3,0.3-0.8,0.6-1.2,0.8c-0.5,0.2-1,0.3-1.6,0.3c-0.6,0-1.1-0.1-1.6-0.3
		c-0.5-0.2-0.9-0.4-1.2-0.8c-0.3-0.3-0.6-0.7-0.8-1.2C49.9,66.3,49.8,65.8,49.8,65.2 M51.2,65.1c0,0.4,0.1,0.8,0.2,1.1
		c0.1,0.3,0.3,0.6,0.5,0.9c0.2,0.2,0.5,0.4,0.8,0.6c0.3,0.1,0.7,0.2,1,0.2s0.7-0.1,1-0.2c0.3-0.1,0.6-0.3,0.8-0.6
		c0.2-0.2,0.4-0.5,0.5-0.9c0.1-0.3,0.2-0.7,0.2-1.1c0-0.4-0.1-0.7-0.2-1c-0.1-0.3-0.3-0.6-0.5-0.8c-0.2-0.2-0.5-0.4-0.8-0.6
		s-0.7-0.2-1-0.2s-0.7,0.1-1,0.2c-0.3,0.1-0.6,0.3-0.8,0.6c-0.2,0.2-0.4,0.5-0.5,0.8C51.2,64.4,51.2,64.8,51.2,65.1 M42.6,61.5h1.3
		v2.9h3.4v-2.9h1.3v7.3h-1.3v-3.2h-3.4v3.2h-1.3V61.5z"/>
</g>
</svg>
