<?xml version="1.0" encoding="utf-8"?>
<!-- Generator: Adobe Illustrator 22.1.0, SVG Export Plug-In . SVG Version: 6.00 Build 0)  -->
<svg version="1.1" id="Layer_1" xmlns="http://www.w3.org/2000/svg" xmlns:xlink="http://www.w3.org/1999/xlink" x="0px" y="0px"
	 viewBox="0 0 500 500" style="enable-background:new 0 0 500 500;" xml:space="preserve">
<style type="text/css">
	.st0{fill:#007D9E;}
	.st1{fill:#FCBA12;}
	.st2{fill:#808285;}
</style>
<g>
	<path class="st0" d="M120.8,249.4L90,330.9h18.1l6.4-18.2h30.5l6.2,18.2h18.6l-30.5-81.5H120.8L120.8,249.4z M119.1,299.4
		l10.6-29.9h0.2l10.3,29.9H119.1L119.1,299.4z M225.6,279.9c-2.2-2.9-5-5.2-8.3-7c-3.4-1.7-7.4-2.6-12-2.6c-3.7,0-7,0.7-10.1,2.2
		c-3,1.4-5.6,3.8-7.5,7h-0.2v-7.6H172v103.5h16.2v-51.7h0.2c2,2.9,4.5,5.1,7.6,6.6c3.1,1.5,6.5,2.2,10.1,2.2c4.3,0,8.1-0.8,11.4-2.5
		c3.2-1.7,5.9-3.9,8.1-6.7c2.2-2.8,3.8-6.1,4.9-9.7c1.1-3.6,1.6-7.5,1.6-11.4c0-4.2-0.5-8.2-1.6-12.1
		C229.4,286.1,227.8,282.8,225.6,279.9L225.6,279.9z M215.2,308.5c-0.5,2.3-1.2,4.3-2.3,6c-1.1,1.7-2.6,3.1-4.3,4.2
		c-1.8,1.1-4,1.6-6.7,1.6c-2.6,0-4.8-0.5-6.6-1.6c-1.8-1.1-3.3-2.4-4.4-4.2c-1.1-1.7-1.9-3.7-2.4-6c-0.5-2.3-0.7-4.6-0.7-7
		c0-2.4,0.2-4.8,0.7-7.1c0.5-2.3,1.2-4.3,2.3-6.1c1.1-1.7,2.6-3.2,4.3-4.3c1.8-1.1,4-1.6,6.7-1.6c2.6,0,4.8,0.6,6.6,1.6
		c1.8,1.1,3.3,2.6,4.4,4.4c1.1,1.8,2,3.8,2.5,6.1c0.5,2.3,0.7,4.6,0.7,7C215.8,303.9,215.6,306.2,215.2,308.5L215.2,308.5z
		 M288.4,278.8c-2.7-2.7-5.9-4.8-9.6-6.3c-3.8-1.5-8-2.2-12.6-2.2c-4.7,0-8.8,0.7-12.6,2.2c-3.7,1.5-6.9,3.6-9.6,6.3
		c-2.7,2.7-4.7,6-6.2,9.8c-1.4,3.8-2.2,8.1-2.2,12.8c0,4.7,0.7,9,2.2,12.8c1.4,3.8,3.5,7.1,6.2,9.8c2.7,2.7,5.9,4.8,9.6,6.2
		c3.7,1.4,7.9,2.2,12.6,2.2c4.6,0,8.8-0.7,12.6-2.2c3.8-1.4,7-3.5,9.6-6.2c2.7-2.7,4.7-6,6.2-9.8c1.4-3.8,2.2-8.1,2.2-12.8
		c0-4.7-0.7-9-2.2-12.8C293.1,284.8,291,281.5,288.4,278.8L288.4,278.8z M279.8,308.4c-0.5,2.2-1.2,4.3-2.3,6.1
		c-1.1,1.8-2.6,3.2-4.5,4.3c-1.8,1.1-4.2,1.6-6.9,1.6c-2.7,0-5-0.5-6.9-1.6c-1.8-1.1-3.3-2.5-4.4-4.3c-1.1-1.8-1.9-3.8-2.3-6.1
		c-0.5-2.3-0.7-4.6-0.7-6.9c0-2.4,0.2-4.7,0.7-7c0.5-2.3,1.2-4.3,2.3-6.1c1.1-1.7,2.6-3.2,4.4-4.3c1.8-1.1,4.1-1.6,6.9-1.6
		c2.7,0,5.1,0.6,6.9,1.6c1.9,1.1,3.4,2.5,4.5,4.3c1.1,1.7,1.9,3.8,2.3,6.1c0.5,2.3,0.7,4.6,0.7,7
		C280.5,303.8,280.3,306.1,279.8,308.4L279.8,308.4z M301.4,330.9h16.2v-81.5h-16.2V330.9L301.4,330.9z M328,330.9h16.2v-81.5H328
		V330.9L328,330.9z M407.8,288.6c-1.5-3.8-3.5-7.1-6.2-9.8c-2.7-2.7-5.9-4.8-9.6-6.3c-3.8-1.5-8-2.2-12.6-2.2
		c-4.6,0-8.8,0.7-12.6,2.2c-3.7,1.5-6.9,3.6-9.6,6.3c-2.7,2.7-4.7,6-6.2,9.8c-1.5,3.8-2.2,8.1-2.2,12.8c0,4.7,0.7,9,2.2,12.8
		c1.4,3.8,3.5,7.1,6.2,9.8c2.7,2.7,5.9,4.8,9.6,6.2c3.7,1.4,7.9,2.2,12.6,2.2c4.6,0,8.8-0.7,12.6-2.2c3.8-1.4,7-3.5,9.6-6.2
		c2.7-2.7,4.7-6,6.2-9.8c1.5-3.8,2.2-8.1,2.2-12.8C410,296.7,409.3,292.4,407.8,288.6L407.8,288.6z M393.1,308.4
		c-0.5,2.2-1.2,4.3-2.3,6.1c-1.1,1.8-2.6,3.2-4.5,4.3c-1.9,1.1-4.2,1.6-6.9,1.6c-2.8,0-5-0.5-6.8-1.6c-1.8-1.1-3.3-2.5-4.4-4.3
		c-1.1-1.8-1.9-3.8-2.3-6.1c-0.5-2.3-0.7-4.6-0.7-6.9c0-2.4,0.2-4.7,0.7-7c0.5-2.3,1.2-4.3,2.3-6.1c1.1-1.7,2.6-3.2,4.4-4.3
		c1.8-1.1,4.1-1.6,6.8-1.6c2.7,0,5,0.6,6.9,1.6c1.9,1.1,3.4,2.5,4.5,4.3c1.1,1.7,1.9,3.8,2.3,6.1c0.5,2.3,0.7,4.6,0.7,7
		C393.8,303.8,393.6,306.1,393.1,308.4L393.1,308.4z"/>
	<path class="st0" d="M218.4,359.3h-12.3v-9.9h-3.3v24h3.3v-11.2h12.3v11.2h3.3v-24h-3.3V359.3L218.4,359.3z M239.7,348.8
		c-4,0-7.1,1.5-9.1,4.5c-1.6,2.3-2.4,5.1-2.4,8.3c0,3.6,0.9,6.6,2.8,8.9c2.1,2.4,5,3.6,8.7,3.6c3.9,0,7-1.4,9.1-4.2
		c1.8-2.4,2.7-5.4,2.7-8.9c0-3.3-0.8-6-2.4-8.2C247.1,350.1,243.9,348.8,239.7,348.8L239.7,348.8z M246.2,368.1
		c-1.3,2-3.4,3.1-6.2,3.1c-3,0-5.2-0.9-6.5-2.7c-1.3-1.8-2-4.1-2-6.7c0-3.3,0.8-5.8,2.3-7.5c1.6-1.7,3.6-2.6,6.1-2.6
		c2.6,0,4.6,0.9,6,2.6c1.5,1.7,2.2,4,2.2,6.8C248.1,363.7,247.5,366.1,246.2,368.1L246.2,368.1z M273.3,361.8
		c-0.9-0.6-2.1-1.1-3.6-1.5l-3.3-0.8c-2.2-0.5-3.6-1-4.2-1.3c-0.9-0.5-1.4-1.4-1.4-2.6c0-1.1,0.4-2,1.2-2.8c0.8-0.8,2.1-1.2,4-1.2
		c2.3,0,3.9,0.6,4.8,1.9c0.5,0.7,0.8,1.7,1,3h3.1c0-2.7-0.9-4.6-2.6-5.8c-1.7-1.2-3.8-1.8-6.2-1.8c-2.7,0-4.7,0.7-6.2,2.1
		c-1.5,1.4-2.2,3.1-2.2,5.3c0,2,0.7,3.5,2.2,4.5c0.9,0.6,2.3,1.1,4.4,1.6l3.2,0.7c1.7,0.4,2.9,0.9,3.7,1.4c0.8,0.6,1.2,1.5,1.2,2.8
		c0,1.8-0.9,3-2.8,3.6c-1,0.4-2,0.5-3.2,0.5c-2.6,0-4.4-0.8-5.5-2.4c-0.5-0.9-0.8-2-0.9-3.3h-3.1c0,2.6,0.8,4.6,2.4,6.1
		c1.7,1.5,3.9,2.3,6.8,2.3c2.5,0,4.7-0.6,6.6-1.7c1.9-1.2,2.8-3,2.8-5.7C275.5,364.6,274.8,362.9,273.3,361.8L273.3,361.8z
		 M293.7,349.4h-10.7v24h3.2v-10.1h7.5c2.4,0,4.2-0.7,5.3-2.1c1.2-1.4,1.7-3,1.7-4.9c0-2.2-0.6-3.9-2-5.1
		C297.5,350,295.8,349.4,293.7,349.4L293.7,349.4z M296.1,359.6c-0.9,0.6-2.1,1-3.5,1h-6.4v-8.3h6.4c1.2,0,2.2,0.2,2.9,0.5
		c1.3,0.6,1.9,1.8,1.9,3.6C297.5,357.9,297,359,296.1,359.6L296.1,359.6z M308.1,373.4h3.3v-24h-3.3V373.4L308.1,373.4z
		 M317.2,352.3h8.1v21.1h3.3v-21.1h8.1v-2.9h-19.4V352.3L317.2,352.3z M346.6,349.4l-9,24h3.3l2.6-7.2h9.4l2.5,7.2h3.6l-8.7-24
		H346.6L346.6,349.4z M344.5,363.6l3.8-10.6l3.7,10.6H344.5L344.5,363.6z M367.7,349.4h-3.2v24h15.3v-2.8h-12V349.4L367.7,349.4z
		 M401,361.8c-0.8-0.6-2.1-1.1-3.6-1.5l-3.3-0.8c-2.2-0.5-3.6-1-4.2-1.3c-0.9-0.5-1.4-1.4-1.4-2.6c0-1.1,0.4-2,1.2-2.8
		c0.8-0.8,2.1-1.2,4-1.2c2.3,0,3.9,0.6,4.8,1.9c0.5,0.7,0.8,1.7,1,3h3c0-2.7-0.9-4.6-2.6-5.8c-1.7-1.2-3.8-1.8-6.2-1.8
		c-2.7,0-4.7,0.7-6.2,2.1c-1.5,1.4-2.2,3.1-2.2,5.3c0,2,0.7,3.5,2.2,4.5c0.9,0.6,2.3,1.1,4.4,1.6l3.1,0.7c1.7,0.4,3,0.9,3.8,1.4
		c0.8,0.6,1.2,1.5,1.2,2.8c0,1.8-0.9,3-2.8,3.6c-1,0.4-2,0.5-3.2,0.5c-2.6,0-4.5-0.8-5.5-2.4c-0.5-0.9-0.8-2-0.9-3.3h-3
		c0,2.6,0.8,4.6,2.4,6.1c1.7,1.5,3.9,2.3,6.8,2.3c2.5,0,4.7-0.6,6.6-1.7c1.9-1.2,2.8-3,2.8-5.7C403.2,364.6,402.5,362.9,401,361.8
		L401,361.8z"/>
	<path class="st0" d="M234.5,258.8l9.6,7.5l9.6-7.5v-22.5h-19.2V258.8L234.5,258.8z M254.7,211.6h-23v-5.5l-52.6,59.2h27.8
		l27.4-31.6h20.4v-3h0v-17.5h0V211.6L254.7,211.6z M234.5,209.1h19.2v-18.9l10.2-15.7h-40.8l11.4,15.7V209.1L234.5,209.1z
		 M175.6,142.8h-53.2v92.6h25.1l57.8-63.3L175.6,142.8L175.6,142.8z M156.5,175h-8.3v8.3H141V175h-8.3v-7.3h8.3v-8.3h7.3v8.3h8.3
		V175L156.5,175z M197.5,231.3l4.1-14.2h5.4v-39.6l-56.2,61.6v27.2l28.1-30.8h13C191.8,235.5,196.3,235.9,197.5,231.3L197.5,231.3z
		 M200.6,197.8l-4.1,4.1l-4.1-4.1H200.6L200.6,197.8z"/>
	<path class="st1" d="M220.2,119.5l-0.6-0.2c-32.5-8.4-34.5-23.7-33.6-29.3c-2.3,6.3-2.1,18.7,0.3,26.2c3.9,3.9,16.8,9.6,29.3,10.8
		c1.4,0.2,2.7,0.4,4,0.7c32.7,6.2,35.5,32.9,23.6,45.8c1.3-2.5,15-30.2-18.6-35.9c-1.7-0.2-3.2-0.6-4.6-0.8c-23.8-4.4-26-8-27.2-8.4
		c-0.9,4.1,5,26.2,27.2,29h0.2c20.8,2.5,22.9,12.9,23,16.2l0,0l0,0l0,0.1l0.1-0.1c6-4.3,9.8-12.1,10.2-20.4v-2.3
		C252.8,137.6,243.5,123.7,220.2,119.5L220.2,119.5z"/>
	<path class="st2" d="M90,395.1h5.5v14.4h2.2v-14.4h5.5v-1.9H90V395.1L90,395.1z M121.9,392.7c-2.8,0-4.8,1-6.3,3
		c-1.1,1.6-1.6,3.5-1.6,5.7c0,2.4,0.6,4.5,1.9,6.1c1.4,1.7,3.4,2.5,5.9,2.5c2.7,0,4.8-0.9,6.2-2.8c1.2-1.6,1.9-3.6,1.9-6.1
		c0-2.2-0.5-4.1-1.6-5.6C127,393.7,124.8,392.7,121.9,392.7L121.9,392.7z M126.4,405.9c-0.9,1.4-2.3,2.1-4.2,2.1
		c-2.1,0-3.5-0.6-4.5-1.9c-0.9-1.2-1.4-2.8-1.4-4.6c0-2.3,0.5-4,1.6-5.1c1.1-1.2,2.5-1.7,4.1-1.7c1.7,0,3.1,0.6,4.1,1.8
		c1,1.2,1.5,2.7,1.5,4.6C127.7,402.9,127.3,404.5,126.4,405.9L126.4,405.9z M153.4,403.3c0,1.2-0.2,2.1-0.6,2.8
		c-0.7,1.3-2,1.9-3.9,1.9c-1.6,0-2.7-0.6-3.4-1.8c-0.5-0.8-0.7-1.8-0.7-3v-10.1h-2.2v9.2c0,2,0.3,3.6,0.8,4.6c1,2,2.9,3,5.7,3
		c2.8,0,4.7-1,5.7-3c0.5-1.1,0.8-2.6,0.8-4.6v-9.2h-2.2V403.3L153.4,403.3z M179.5,406.1c-0.8,1.3-2.1,1.9-3.7,1.9
		c-1.7,0-3-0.6-3.9-1.8c-0.9-1.2-1.3-2.8-1.3-4.7c0-2.3,0.5-4.1,1.5-5.2c1-1.1,2.2-1.7,3.8-1.7c1.3,0,2.3,0.3,3,0.9
		c0.7,0.6,1.2,1.5,1.4,2.5h2.2c-0.1-1.4-0.7-2.6-1.9-3.7c-1.1-1.1-2.7-1.6-4.8-1.6c-2.4,0-4.3,0.8-5.6,2.5c-1.3,1.5-1.9,3.5-1.9,5.9
		c0,3.2,0.8,5.5,2.5,7.1c1.3,1.1,2.9,1.7,4.7,1.7c2.2,0,3.9-0.7,5.2-2.1c1.1-1.2,1.7-2.6,1.9-4.3h-2.2
		C180.2,404.6,179.9,405.5,179.5,406.1L179.5,406.1z M206.1,399.9h-8.4v-6.8h-2.2v16.4h2.2v-7.6h8.4v7.6h2.2v-16.4h-2.2V399.9
		L206.1,399.9z M222.4,409.5h2.2v-16.4h-2.2V409.5L222.4,409.5z M248.9,406.4l-8.1-13.2h-2.6v16.4h2.1v-13.2l8.3,13.2h2.5v-16.4
		h-2.1V406.4L248.9,406.4z M271.5,402.6h5.1c0,1.9-0.5,3.3-1.5,4.1c-0.9,0.8-2.1,1.3-3.6,1.3c-1.9,0-3.3-0.6-4.1-1.8
		c-0.8-1.2-1.2-2.8-1.2-4.8c0-2.2,0.5-3.9,1.5-5.1c1-1.1,2.3-1.7,3.7-1.7c1.2,0,2.3,0.3,3.1,0.8c0.8,0.5,1.3,1.4,1.6,2.6h2.2
		c-0.4-2.1-1.3-3.6-3-4.5c-1.1-0.6-2.4-0.9-3.9-0.9c-2.2,0-4,0.8-5.4,2.3c-1.5,1.6-2.2,3.8-2.2,6.5c0,2.7,0.8,4.9,2.3,6.5
		c1.4,1.2,3,1.9,4.9,1.9c1.5,0,2.7-0.3,3.6-0.8c0.6-0.3,1.2-0.9,2-1.7l0.5,2.1h1.4v-8.8h-7.2V402.6L271.5,402.6z M310.8,393.2h-2.2
		v16.4H319v-2h-8.2V393.2L310.8,393.2z M331.8,409.5h2.2v-16.4h-2.2V409.5L331.8,409.5z M353.5,407.1l-4.7-13.9h-2.4l6,16.4h2.4
		l6-16.4h-2.5L353.5,407.1L353.5,407.1z M375.1,402h9v-1.9h-9v-5h9.7v-2H373v16.4h12v-2h-9.9V402L375.1,402z M408.5,401.6
		c-0.6-0.4-1.4-0.8-2.5-1l-2.2-0.5c-1.5-0.4-2.5-0.6-2.9-0.9c-0.7-0.4-1-0.9-1-1.7c0-0.7,0.3-1.4,0.8-1.9c0.5-0.6,1.4-0.8,2.7-0.8
		c1.5,0,2.7,0.4,3.3,1.3c0.4,0.5,0.6,1.2,0.7,2h2.1c0-1.8-0.6-3.1-1.8-4c-1.2-0.8-2.6-1.2-4.3-1.2c-1.8,0-3.2,0.5-4.2,1.4
		c-1,0.9-1.5,2.1-1.5,3.6c0,1.4,0.5,2.4,1.5,3.1c0.6,0.4,1.6,0.8,3,1.1l2.1,0.5c1.2,0.3,2,0.6,2.6,1c0.5,0.4,0.8,1,0.8,1.9
		c0,1.2-0.6,2-1.9,2.5c-0.7,0.2-1.4,0.4-2.2,0.4c-1.8,0-3-0.6-3.7-1.6c-0.4-0.6-0.6-1.3-0.6-2.2h-2.1c0,1.8,0.5,3.2,1.7,4.2
		c1.1,1,2.7,1.5,4.6,1.5c1.7,0,3.2-0.4,4.5-1.2c1.3-0.8,1.9-2.1,1.9-3.9C410,403.5,409.5,402.4,408.5,401.6L408.5,401.6z"/>
</g>
</svg>
