<?xml version="1.0" encoding="utf-8"?>
<!-- Generator: Adobe Illustrator 22.1.0, SVG Export Plug-In . SVG Version: 6.00 Build 0)  -->
<svg version="1.1" id="Layer_1" xmlns="http://www.w3.org/2000/svg" xmlns:xlink="http://www.w3.org/1999/xlink" x="0px" y="0px"
	 viewBox="0 0 32 32" style="enable-background:new 0 0 32 32;" xml:space="preserve">
<path d="M31.9,8.8c-0.7-1.7-3.4-1.5-6-1.1c-10.4,1.9-10.7,10.4-10.5,13c0,1,0.2,1.9,0.4,2.7c-0.2,0.1-0.4,0.3-0.5,0.4L15,23.9
	c-3.9-0.5-8.8-1.5-11.5-2.6l1.2-2.7l0.1,0c0.4-0.1,0.9-0.3,1.4-0.4c5.1-1.4,7.9-3.5,8.4-6.1C15,8.5,11.2,5.5,10,4.6L9.2,4.1
	L3.4,17.3c-1.6,0.6-3.4,1.5-3.4,3c0.1,0.7,0.5,1.3,1.4,1.8l-0.2,0.3L2.8,23l0.1-0.3c4.3,1.8,12.2,2.7,12.3,2.8h0.2l0.3-0.1
	c0.1-0.1,0.3-0.2,0.6-0.4c0.6,1.3,1.3,2.1,2.1,2.2c0.5,0,1.3-0.3,1.6-2c0.3-2.1,1.1-2.8,1.5-2.9c0.3-0.1,0.5,0.2,0.6,0.3
	c0.5,0.8,0.6,2.4-0.8,4.4l-0.3,0.4l1.3,0.9l0.3-0.4c1.8-2.7,1.6-5,0.9-6.1c-0.4-0.5-0.9-0.9-1.5-1C27.3,16.5,32.9,11.3,31.9,8.8z
	 M17.6,24c0.4-0.3,0.8-0.6,1.3-0.9c-0.2,0.5-0.4,1.1-0.5,1.9c0,0.2-0.1,0.3-0.1,0.4C18.1,25.1,17.9,24.7,17.6,24z M17.1,22.3
	c-0.1-0.5-0.2-1.1-0.2-1.7c-0.2-2.9,0.3-9.7,9.2-11.3C27.2,9.1,28.1,9,28.8,9c1.1,0,1.5,0.3,1.6,0.4C30.9,10.7,25.2,16.2,17.1,22.3z
	 M1.7,20.2c0,0,0.1-0.2,0.8-0.7l-0.4,1.1C1.8,20.3,1.7,20.2,1.7,20.2z M5.5,16.6l4.4-10c1.1,0.9,3.3,3.1,3,5.2
	C12.5,13.7,10.1,15.3,5.5,16.6C5.6,16.6,5.5,16.6,5.5,16.6z"/>
</svg>
