<?xml version="1.0" encoding="utf-8"?>
<!-- Generator: Adobe Illustrator 22.1.0, SVG Export Plug-In . SVG Version: 6.00 Build 0)  -->
<svg version="1.1" id="Layer_1" xmlns="http://www.w3.org/2000/svg" xmlns:xlink="http://www.w3.org/1999/xlink" x="0px" y="0px"
	 viewBox="0 0 500 500" style="enable-background:new 0 0 500 500;" xml:space="preserve">
<style type="text/css">
	.st0{fill:#B72133;}
	.st1{fill:#F15A24;}
	.st2{fill:#B52B0B;}
</style>
<g>
	<g>
		<path class="st0" d="M119.5,347.4c-3.4,0.5-6.8,1-10.2,1.6c1.8,11.5,3.5,23,5.3,34.5c-8.3,1.3-16.6,2.6-24.9,3.8
			c-4.4-28.7-8.8-57.4-13.2-86.1c14.2-2.2,28.3-4.3,42.5-6.5c6.2,3.3,12.4,6.7,18.6,10c1.1,7.5,2.3,14.9,3.4,22.4
			c-3.7,3.5-7.3,7-11,10.4c4.5,2.1,9,4.1,13.6,6.2c1.8,11.5,3.5,23,5.3,34.5c-8,1.2-16,2.5-24,3.7
			C123.1,370.4,121.3,358.9,119.5,347.4z M114.1,312c-3.4,0.5-6.8,1-10.2,1.6c1,6.4,2,12.8,3,19.2c3.4-0.5,6.8-1,10.2-1.6
			C116,324.8,115.1,318.4,114.1,312z"/>
	</g>
	<g>
		<path class="st0" d="M191.3,355.4c-4.8,0.7-9.6,1.5-14.4,2.2c0.1,5.4,0.2,10.8,0.3,16.2c-8.1,1.2-16.2,2.5-24.3,3.7
			c0.7-29.5,1.4-59,2.1-88.5c12-1.8,24-3.7,36-5.5c9.7,27.9,19.4,55.8,29.1,83.7c-8.2,1.3-16.3,2.5-24.5,3.8
			C194.2,365.8,192.7,360.6,191.3,355.4z M174.5,305.2c0.6,12,1.1,24,1.7,36c3.6-0.6,7.2-1.1,10.8-1.7c-3.4-11.6-6.7-23.1-10.1-34.7
			C176.1,304.9,175.3,305,174.5,305.2z"/>
	</g>
	<g>
		<path class="st0" d="M263.5,315.5c5,2.1,10,4.2,14.9,6.3c1.2,7.8,2.4,15.5,3.6,23.3c-4.8,5-9.6,10-14.4,15
			c-14.5,2.2-28.9,4.4-43.4,6.7c-4.4-28.7-8.8-57.4-13.2-86.1c14.5-2.2,28.9-4.4,43.4-6.7c5.4,2.9,10.7,5.7,16.1,8.6
			c1.2,7.6,2.3,15.2,3.5,22.8C270.4,308.6,266.9,312.1,263.5,315.5z M248.3,291.4c-3.3,0.5-6.6,1-9.9,1.5c0.9,6.1,1.9,12.2,2.8,18.3
			c3.3-0.5,6.6-1,9.9-1.5C250.1,303.6,249.2,297.5,248.3,291.4z M253.6,325.9c-3.3,0.5-6.6,1-9.9,1.5c1,6.4,2,12.8,3,19.2
			c3.3-0.5,6.6-1,9.9-1.5C255.5,338.7,254.5,332.3,253.6,325.9z"/>
	</g>
	<g>
		<path class="st0" d="M296.9,349.4c0-3-0.3-6-0.9-8.9c-0.7-3.4-1.7-6.7-2.7-10c-0.7-2.4-0.8-5.1-2.8-7c-1.6-1.5-2.1-3.2-1.6-5.3
			c0.5-2.2-0.4-4.1-1.1-6c-0.4,0.2-0.6,0.4-1,0.6c-0.1-1.6-0.5-3-0.2-4.4c0.7-3.3,1.7-6.6,2.5-9.9c0.1-0.4,0-1.2-0.3-1.3
			c-2.6-1.2-2-3.9-1.7-5.5c0.4-1.8,1.3-3.4,0.3-5.2c-0.5-1-1-2-1.5-3c-0.4-1-1.2-1.9-1.2-2.9c-0.1-2.5,0-5,0.2-7.5
			c0.1-1,0.6-2,0.9-3.1c0.5-0.1,0.9-0.1,1.4-0.2c1.8,2.7,3.6,5.4,5.5,8c0.3,0.5,1.2,0.7,1.9,0.8c1.4,0.1,2.9-0.1,4.3,0
			c1.5,0.1,2.6-0.4,3.5-1.4c1.3-1.6,2.4-3.4,3.7-5c0.5-0.7,1.3-1.2,1.9-1.8c0.5,0.8,1.4,1.7,1.4,2.5c0.1,3.1-0.5,6.2-2,9
			c-0.5,1-0.8,2-1.1,3c-0.3,0.8-0.6,1.7-0.9,2.5c0,0.1-0.1,0.2-0.1,0.3c-0.4,1.4,1.5,4.4,2.9,4.6c-0.6,0.8-1.2,1.6-1.9,2.4
			c0.3,0.3,0.5,0.7,0.8,1c1.3,1.5,2.2,3.3,3.2,5c2.4,4,5.3,7.7,9,10.7c0.6,0.5,1.2,0.9,1.8,1.3c-2.5-16-4.9-32-7.4-48.1
			c-11.9,1.8-23.8,3.7-35.7,5.5c4.4,28.7,8.8,57.4,13.2,86.1c1.1-0.2,2.2-0.3,3.3-0.5c0.1-0.5,0.3-1.4,0.5-2
			C295.8,352.3,296.9,350.8,296.9,349.4z"/>
	</g>
	<g>
		<path class="st0" d="M305.1,342.1c0.2-1.2,0.2-2-0.8-2.7c-1.4-1-2.1-2.3-1.5-4.2c0.4-1.4-0.4-2.2-1.8-2.9c-1,3.1-1.3,6.2-0.7,9.3
			c0.3,1.5,1.3,3,0.3,4.7c-0.1,0.2,0,0.6,0.1,0.8c0.9,1.5,0.9,3,0.9,4.8c0,1.4,0,2.3-0.2,2.9c0.5-0.1,0.9-0.1,1.4-0.2
			c0.7-2.5,1.4-4.9,1.9-7.4C305,345.6,304.8,343.8,305.1,342.1z"/>
	</g>
	<g>
		<path class="st0" d="M324.6,349.3c-2.4,2-5.3,2.5-8.2,2.9c-0.3,0-0.8-0.1-1-0.4c-1.2-1.1-0.8-2.4,0.9-3.1c0.7-0.3,1.5-0.7,2.5-1.1
			c-1-0.4-1.7-0.5-2.1-0.9c-1.4-1.3-3-1.2-4.7-0.9c-2.4,0.5-3,1.4-2.3,3.8c0.1,0.6,0,1.2,0,1.8c0,0.7-0.1,1.5,0.2,2.1
			c5.8-0.9,11.5-1.8,17.3-2.7c-0.1-0.9-0.3-1.7-0.4-2.6C326,348.5,325.2,348.9,324.6,349.3z"/>
	</g>
	<g>
		<path class="st0" d="M321.7,263.5c15.3-2.3,30.5-4.7,45.8-7c0.8,5.4,1.7,10.8,2.5,16.2c-7,1.1-13.9,2.1-20.9,3.2
			c0.8,5.4,1.7,10.8,2.5,16.2c5.8-0.9,11.5-1.8,17.3-2.7c0.8,5.4,1.7,10.8,2.5,16.2c-5.8,0.9-11.5,1.8-17.3,2.7
			c1.1,7.1,2.2,14.2,3.3,21.3c7.2-1.1,14.3-2.2,21.5-3.3c0.8,5.4,1.7,10.8,2.5,16.2c-15.5,2.4-30.9,4.7-46.4,7.1
			C330.5,320.9,326.1,292.2,321.7,263.5z"/>
	</g>
	<g>
		<path class="st0" d="M412.1,266.2c-3.5,0.5-6.9,1.1-10.4,1.6c0.9,5.9,1.8,11.7,2.7,17.6c6-0.5,12-1,18-1.6
			c6.3,3.3,12.7,6.6,19,9.8c1.3,8.8,2.7,17.5,4,26.3c-4.8,5-9.5,10-14.3,14.9c-9.2,1.4-18.3,2.8-27.5,4.2c-6-3.3-12.1-6.6-18.1-10
			c-0.8-5.1-1.6-10.1-2.3-15.2c8.3-1.3,16.6-2.6,24.9-3.8c0.6,3.8,1.2,7.6,1.8,11.4c3.5-0.5,6.9-1.1,10.4-1.6c-0.9-6-1.8-12-2.8-18
			c-6.1,0.5-12.1,1-18.2,1.6c-6.4-3.2-12.8-6.4-19.2-9.7c-1.3-8.6-2.6-17.2-4-25.8c4.9-5,9.7-10.1,14.6-15.1c8.7-1.3,17.3-2.7,26-4
			c6.2,3.3,12.5,6.7,18.7,10c0.8,5.1,1.6,10.1,2.3,15.2c-8,1.2-16,2.5-24,3.7C413.3,273.9,412.7,270,412.1,266.2z"/>
	</g>
	<g>
		<g>
			<path class="st1" d="M55.4,168c10.8-1.7,21.7-3.3,32.5-5c0.6,3.6,1.1,7.2,1.7,10.8c-6.1,0.9-12.2,1.9-18.3,2.8
				c0.9,6,1.9,12.1,2.8,18.1c4.9-0.8,9.8-1.5,14.7-2.3c0.6,3.6,1.1,7.3,1.7,10.9c-4.9,0.8-9.8,1.5-14.7,2.3
				c4.3,28,8.6,56.1,12.9,84.1c-4.7,0.7-9.5,1.5-14.2,2.2C68.1,250.7,61.8,209.4,55.4,168z"/>
			<path class="st1" d="M97.4,161.6c10.8-1.7,21.7-3.3,32.5-5c0.6,3.6,1.1,7.2,1.7,10.8c-6.1,0.9-12.2,1.9-18.3,2.8
				c0.9,6,1.9,12.1,2.8,18.1c4.9-0.8,9.8-1.5,14.7-2.3c0.6,3.6,1.1,7.3,1.7,10.9c-4.9,0.8-9.8,1.5-14.7,2.3
				c3.7,24.4,7.5,48.7,11.2,73.1c6.1-0.9,12.2-1.9,18.3-2.8c0.6,3.7,1.1,7.4,1.7,11c-10.8,1.7-21.7,3.3-32.5,5
				C110.1,244.2,103.8,202.9,97.4,161.6z"/>
			<path class="st1" d="M149.4,164.6c-2.3,0.3-4.5,0.7-6.8,1c-0.6-3.6-1.1-7.2-1.7-10.8c10.2-1.6,20.4-3.1,30.6-4.7
				c11.3,40.6,22.6,81.1,34,121.7c-5.5,0.8-11,1.7-16.6,2.5c-3.8-16.7-7.5-33.4-11.3-50.1c-4.2,0.6-8.4,1.3-12.6,1.9
				c1.4,17.1,2.8,34.1,4.2,51.2c-5.6,0.9-11.1,1.7-16.7,2.6C151.4,241.6,150.4,203.1,149.4,164.6z M174.9,214
				c-4.4-17.2-8.9-34.4-13.3-51.6c0.9,17.7,1.8,35.5,2.8,53.2C167.8,215.1,171.3,214.5,174.9,214z"/>
			<path class="st1" d="M192.4,158.1c-1.6,0.2-3.1,0.5-4.7,0.7c-0.6-3.6-1.1-7.2-1.7-10.8c9.4-1.4,18.8-2.9,28.3-4.3
				c8.6-1.3,14.9,1.6,16.3,10.2c1.3,8.5,2.6,16.9,3.9,25.4c1,6.4-1.5,10.8-6.8,11.9c9.1,24.4,18.3,48.8,27.4,73.2
				c-5.2,0.8-10.3,1.6-15.5,2.4c-9.2-25-18.4-50-27.6-75.1c4,25.8,7.9,51.7,11.9,77.5c-4.7,0.7-9.4,1.4-14.1,2.2
				C203.9,233.5,198.2,195.8,192.4,158.1z M216.5,182.6c4.4-0.7,4.6-1.6,4.1-5c-1-6.2-1.9-12.4-2.9-18.6c-0.5-3.3-1.6-4.8-5.9-4.1
				c-1.8,0.3-3.5,0.5-5.3,0.8c1.4,9.3,2.8,18.5,4.3,27.8C212.6,183.1,214.5,182.9,216.5,182.6z"/>
			<path class="st1" d="M240.2,139.7c4.9-0.7,9.7-1.5,14.6-2.2c3.7,24.1,7.4,48.2,11.1,72.4c6-0.9,11.9-1.8,17.9-2.8
				c0.6,3.7,1.1,7.4,1.7,11c-10.8,1.7-21.7,3.3-32.5,5C248.7,195.2,244.5,167.4,240.2,139.7z"/>
			<path class="st1" d="M281.5,133.3c10.8-1.7,21.7-3.3,32.5-5c0.6,3.6,1.1,7.2,1.7,10.8c-6.1,0.9-12.2,1.9-18.3,2.8
				c0.9,6,1.9,12.1,2.8,18.1c4.9-0.8,9.8-1.5,14.7-2.3c0.6,3.6,1.1,7.3,1.7,10.9c-4.9,0.8-9.8,1.5-14.7,2.3
				c1.7,10.8,3.3,21.7,5,32.5c6.1-0.9,12.2-1.9,18.3-2.8c0.6,3.7,1.1,7.4,1.7,11c-10.8,1.7-21.7,3.3-32.5,5
				C290.1,188.9,285.8,161.1,281.5,133.3z"/>
			<path class="st1" d="M333.9,200c-0.7-4.6-1.4-9.3-2.1-13.9c4.7-0.7,9.3-1.4,14-2.2c0.5,3.6,1.1,7.1,1.6,10.7
				c0.4,2.9,1.1,3.4,5.7,2.7c4.1-0.6,5.2-1.3,4.8-4.3c-0.6-3.7-1.1-7.4-1.7-11.1c-2.8-18.1-27-12.6-30.1-32.6c-0.6-4-1.2-8-1.9-12.1
				c-1.3-8.6,3.4-11.2,11.9-12.5c3.6-0.6,7.3-1.1,10.9-1.7c8.5-1.3,13.9-0.3,15.3,8.4c0.7,4.8,1.5,9.6,2.2,14.4
				c-4.6,0.7-9.1,1.4-13.7,2.1c-0.6-3.7-1.1-7.4-1.7-11c-0.5-3.1-1.7-3.3-5.8-2.6c-4.6,0.7-5.1,1.3-4.6,4.2c0.4,2.7,0.8,5.4,1.2,8
				c1.9,12.6,26.7,10.2,29.9,30.8c0.9,5.6,1.7,11.3,2.6,16.9c1.3,8.6-3.5,11.4-12,12.7c-4.1,0.6-8.1,1.2-12.2,1.9
				C340.2,209.6,335.2,208.4,333.9,200z"/>
			<path class="st1" d="M382.3,192.6c-0.7-4.6-1.4-9.3-2.1-13.9c4.7-0.7,9.3-1.4,14-2.2c0.5,3.6,1.1,7.1,1.6,10.7
				c0.4,2.9,1.1,3.4,5.7,2.7c4.1-0.6,5.2-1.3,4.8-4.3c-0.6-3.7-1.1-7.4-1.7-11.1c-2.8-18.1-27-12.6-30.1-32.6c-0.6-4-1.2-8-1.9-12.1
				c-1.2-8.6,3.5-11.3,12-12.6c3.6-0.6,7.3-1.1,10.9-1.7c8.5-1.3,13.9-0.3,15.3,8.4c0.7,4.8,1.5,9.6,2.2,14.4
				c-4.6,0.7-9.1,1.4-13.7,2.1c-0.6-3.7-1.1-7.4-1.7-11c-0.5-3.1-1.7-3.3-5.8-2.6c-4.6,0.7-5.1,1.3-4.6,4.2c0.4,2.7,0.8,5.4,1.2,8
				c1.9,12.6,26.7,10.2,29.9,30.8c0.9,5.6,1.7,11.3,2.6,16.9c1.3,8.6-3.5,11.4-12,12.7c-4.1,0.6-8.1,1.2-12.2,1.9
				C388.6,202.2,383.6,201,382.3,192.6z"/>
		</g>
	</g>
	<g>
		<g>
			<path class="st2" d="M278.2,250.8c-0.5,3-1,6-1.5,9c-1.2,0.2-2.4,0.4-3.6,0.6c1.7-9.6,3.4-19.1,5.1-28.7c1.4-0.2,2.8-0.4,4.3-0.7
				c4.5,8.6,9,17.2,13.5,25.9c-1.3,0.2-2.5,0.4-3.8,0.6c-1.4-2.7-2.8-5.4-4.2-8.1C284.7,249.8,281.5,250.3,278.2,250.8z
				 M286.8,246.6c-1.3-2.5-2.6-5-3.9-7.4c-0.9-1.7-1.5-3.2-2.2-4.8h-0.1c-0.2,1.7-0.3,3.4-0.6,5.2c-0.5,2.8-1,5.5-1.5,8.3
				C281.3,247.5,284,247.1,286.8,246.6z"/>
			<path class="st2" d="M320.3,251.8c-1.5,0.8-4.5,2.2-8.2,2.8c-4.1,0.6-7.7,0.1-10.8-2c-2.7-1.9-4.7-5.3-5.4-9.6
				c-1.2-8.1,3.5-15,12.6-16.4c3.2-0.5,5.7-0.2,7,0.2c-0.1,1-0.3,2-0.4,3c-1.6-0.4-3.5-0.7-6.2-0.2c-6.6,1-10.3,5.8-9.3,12.7
				c1.1,6.9,5.9,10.4,12.2,9.4c2.3-0.4,3.8-0.9,4.6-1.5c-0.4-2.7-0.8-5.4-1.3-8.1c-1.8,0.3-3.7,0.6-5.5,0.9
				c-0.1-0.9-0.3-1.9-0.4-2.8c3-0.5,6-0.9,9-1.4C319,243.1,319.6,247.5,320.3,251.8z"/>
			<path class="st2" d="M329.4,242.9c-0.5,3-1,6-1.5,9c-1.2,0.2-2.4,0.4-3.6,0.6c1.7-9.6,3.4-19.1,5.1-28.7c1.4-0.2,2.8-0.4,4.3-0.7
				c4.5,8.6,9,17.2,13.5,25.9c-1.3,0.2-2.5,0.4-3.8,0.6c-1.4-2.7-2.8-5.4-4.2-8.1C335.8,241.9,332.6,242.4,329.4,242.9z
				 M337.9,238.8c-1.3-2.5-2.6-5-3.9-7.4c-0.9-1.7-1.5-3.2-2.2-4.8h-0.1c-0.2,1.7-0.3,3.4-0.6,5.2c-0.5,2.8-1,5.5-1.5,8.3
				C332.4,239.6,335.2,239.2,337.9,238.8z"/>
			<path class="st2" d="M350.8,220.5c1.4,9.1,2.8,18.2,4.2,27.3c-1.2,0.2-2.3,0.4-3.5,0.5c-1.4-9.1-2.8-18.2-4.2-27.3
				C348.5,220.8,349.6,220.6,350.8,220.5z"/>
			<path class="st2" d="M361.6,246.8c-1.4-9.1-2.8-18.2-4.2-27.3c1.3-0.2,2.6-0.4,3.8-0.6c3.6,4.2,7.2,8.3,10.9,12.5
				c2.5,2.9,4.5,5.5,6.3,8.1c0,0,0,0,0.1-0.1c-0.9-3.6-1.5-6.9-2.1-11.2c-0.6-3.8-1.2-7.6-1.8-11.4c1.1-0.2,2.2-0.3,3.3-0.5
				c1.4,9.1,2.8,18.2,4.2,27.3c-1.2,0.2-2.4,0.4-3.6,0.5c-3.6-4.2-7.2-8.3-10.8-12.5c-2.4-2.7-4.7-5.6-6.5-8.3c0,0-0.1,0-0.1,0.1
				c0.7,3.4,1.3,6.7,2,11.2c0.6,3.9,1.2,7.8,1.8,11.7C363.8,246.4,362.7,246.6,361.6,246.8z"/>
			<path class="st2" d="M387.5,238.4c1.7,0.7,4.2,1.2,6.6,0.8c3.6-0.6,5.4-2.8,5-5.5c-0.4-2.6-2.1-3.8-6-4.6
				c-4.7-0.9-7.8-2.8-8.4-6.6c-0.7-4.3,2.4-8,7.7-8.8c2.8-0.4,4.9-0.1,6.2,0.4c-0.2,1-0.4,2-0.5,3c-1-0.3-2.9-0.9-5.4-0.5
				c-3.7,0.6-4.8,3-4.5,4.9c0.4,2.6,2.2,3.6,6.2,4.4c4.9,1.1,7.6,2.9,8.2,6.9c0.6,4.2-1.9,8.3-8.4,9.3c-2.6,0.4-5.6,0.1-7.2-0.7
				C387.2,240.4,387.3,239.4,387.5,238.4z"/>
			<path class="st2" d="M410.4,214.4c-2.8,0.4-5.5,0.9-8.3,1.3c-0.2-1-0.3-2-0.5-3c6.7-1,13.5-2.1,20.2-3.1c0.2,1,0.3,2,0.5,3
				c-2.8,0.4-5.6,0.9-8.3,1.3c1.2,8.1,2.5,16.2,3.7,24.3c-1.2,0.2-2.4,0.4-3.6,0.5C412.9,230.6,411.7,222.5,410.4,214.4z"/>
		</g>
	</g>
</g>
</svg>
