<?xml version="1.0" encoding="utf-8"?>
<!-- Generator: Adobe Illustrator 23.0.6, SVG Export Plug-In . SVG Version: 6.00 Build 0)  -->
<svg version="1.1" id="Layer_1" xmlns="http://www.w3.org/2000/svg" xmlns:xlink="http://www.w3.org/1999/xlink" x="0px" y="0px"
	 viewBox="0 0 1200 594.1" style="enable-background:new 0 0 1200 594.1;" xml:space="preserve">
<style type="text/css">
	.st0{fill:#404041;}
	.st1{fill:#2987C8;}
	.st2{fill:#FCB614;}
	.st3{fill:#F16A27;}
	.st4{fill:#DD1A85;}
	.st5{fill-rule:evenodd;clip-rule:evenodd;fill:#10A44A;}
</style>
<g>
	<g>
		<path class="st0" d="M421.3,493h6.6l-4.1,20.2l-1.4,5.2h0.3c4.7-4,9.3-7,14.3-7c7,0,9.9,3.9,9.9,10.4c0,2-0.2,3.4-0.7,5.8
			l-5.3,26.6h-6.5l5.1-25.8c0.4-2.2,0.7-3.4,0.7-4.9c0-4.2-1.9-6.4-6.2-6.4c-3.3,0-7.3,2.3-12.5,7.6l-5.9,29.5h-6.5L421.3,493z"/>
		<path class="st0" d="M477.3,511.4c9.4,0,12.9,6.5,12.9,15.1c0,3.3-0.9,6.6-1.5,8.2h-27.1c-1.5,10.7,4,15.3,11.3,15.3
			c3.3,0,6.7-1.6,9.4-3.6l2.6,4.4c-3.3,2.4-8.1,4.5-13.5,4.5c-9.9,0-16.4-6.3-16.4-17.4C455,522,466.4,511.4,477.3,511.4z
			 M484.2,530.2c0.3-1.4,0.4-2.7,0.4-4.3c0-4.7-2.1-9.3-8.1-9.3c-6.1,0-12.1,5.3-14.2,13.6H484.2z"/>
		<path class="st0" d="M497.3,540c0-16.1,11-28.7,22.6-28.7c4.5,0,8.1,2.5,10,6.3h0.3l1.6-5.2h5.3l-8.3,41.7h-5.4l0.7-6.2h-0.3
			c-4,4.3-9.3,7.2-14.5,7.2C502.1,555.1,497.3,549.8,497.3,540z M524.9,541.7l3.8-18.6c-2.4-4.4-5.3-6.2-8.5-6.2
			c-8.3,0-16.1,10.6-16.1,22.1c0,7.2,3,10.6,7.6,10.6C516.1,549.6,520.8,547.1,524.9,541.7z"/>
		<path class="st0" d="M544.7,549.7c0-0.9,0.2-2.1,0.5-3.6l10.6-53.1h6.6l-10.7,53.5c-0.2,0.9-0.2,1.3-0.2,1.6c0,1,0.6,1.5,1.5,1.5
			c0.3,0,0.6,0,1.4-0.3l0.1,5.1c-1.1,0.4-2.3,0.7-4.1,0.7C546.6,555.1,544.7,553.2,544.7,549.7z"/>
		<path class="st0" d="M569,545.9c0-1.7,0.3-3.1,0.4-4.6l4.9-23.5h-6.1l0.9-4.9l6.5-0.4l3.1-11.5h5.6l-2.3,11.5h10.6l-1,5.3h-10.7
			l-4.9,23.9c-0.2,1-0.3,2-0.3,3.1c0,3.4,1.4,5.2,5.3,5.2c1.6,0,3.1-0.7,4.4-1.3l1.5,4.7c-1.9,0.9-4.6,1.9-7.9,1.9
			C571.7,555.1,569,551,569,545.9z"/>
		<path class="st0" d="M606.7,493h6.6l-4.1,20.2l-1.4,5.2h0.3c4.7-4,9.3-7,14.3-7c7,0,9.9,3.9,9.9,10.4c0,2-0.2,3.4-0.7,5.8
			l-5.3,26.6h-6.5l5.1-25.8c0.4-2.2,0.7-3.4,0.7-4.9c0-4.2-1.9-6.4-6.2-6.4c-3.3,0-7.3,2.3-12.5,7.6l-5.9,29.5h-6.5L606.7,493z"/>
		<path class="st0" d="M670.4,538.4c0-15.5,11.2-27,23.3-27c5,0,8.3,2.2,10.8,5.1l-3.9,4.1c-2.1-2.6-4.1-3.8-7.4-3.8
			c-8.3,0-16.1,9.8-16.1,21.2c0,7.6,3.3,11.7,9.9,11.7c3.7,0,6.7-1.7,9.3-3.7l2.9,4.3c-3,2.3-7.3,4.9-13.4,4.9
			C676.7,555.1,670.4,549,670.4,538.4z"/>
		<path class="st0" d="M707.5,540c0-16.1,11-28.7,22.6-28.7c4.5,0,8.1,2.5,10,6.3h0.3l1.6-5.2h5.3l-8.3,41.7h-5.4l0.7-6.2H734
			c-4,4.3-9.3,7.2-14.5,7.2C712.2,555.1,707.5,549.8,707.5,540z M735,541.7l3.8-18.6c-2.4-4.4-5.3-6.2-8.5-6.2
			c-8.3,0-16.1,10.6-16.1,22.1c0,7.2,3,10.6,7.6,10.6C726.3,549.6,730.9,547.1,735,541.7z"/>
		<path class="st0" d="M762,512.4h5.4l-0.9,8h0.3c3.3-5.1,7.8-9,13-9c1.5,0,2.7,0.3,3.9,0.8l-2.3,5.8c-0.9-0.4-2.1-0.7-3.6-0.7
			c-4.1,0-8.8,3.7-12.3,10.5l-5.2,26.4h-6.5L762,512.4z"/>
		<path class="st0" d="M805.9,511.4c9.4,0,12.9,6.5,12.9,15.1c0,3.3-0.9,6.6-1.5,8.2h-27.1c-1.5,10.7,4,15.3,11.3,15.3
			c3.3,0,6.7-1.6,9.4-3.6l2.6,4.4c-3.3,2.4-8.1,4.5-13.5,4.5c-9.9,0-16.4-6.3-16.4-17.4C783.6,522,795,511.4,805.9,511.4z
			 M812.8,530.2c0.3-1.4,0.4-2.7,0.4-4.3c0-4.7-2.1-9.3-8.1-9.3c-6.1,0-12.1,5.3-14.2,13.6H812.8z"/>
		<path class="st0" d="M894.7,509.3l3.3-16.3h6.6l-12.4,61.1h-5.4l0.7-6.2h-0.3c-4,4.3-9.3,7.2-14.5,7.2c-7.3,0-12-5.3-12-15.1
			c0-16.1,11-28.7,22.6-28.7c4.5,0,7.8,2.4,9.9,6.1h0.3L894.7,509.3z M888.2,541.7l3.8-18.6c-2.4-4.4-5.3-6.2-8.5-6.2
			c-8.3,0-16.1,10.6-16.1,22.1c0,7.2,3,10.6,7.6,10.6C879.4,549.6,884,547.1,888.2,541.7z"/>
		<path class="st0" d="M915,512.4h6.6l-8.4,41.7h-6.5L915,512.4z M916.4,499.9c0-2.8,2.3-5,5-5c2.2,0,4.2,1.5,4.2,3.9
			c0,2.8-2.3,4.9-5,4.9C918.4,503.7,916.4,502.3,916.4,499.9z"/>
		<path class="st0" d="M925.1,567.6l3.1-4.5c3.2,2.7,7.1,5,11.8,5c7.1,0,11.3-4.9,13.1-12.4l2.1-8.9c-4.4,4.4-9.2,7-14.5,7
			c-7,0-12.1-5-12.1-14.7c0-15.3,10.8-27.6,22.1-27.6c4.4,0,8.1,2.5,10,6.3h0.3l1.6-5.2h5.4l-8.8,43.7c-2.2,11.1-9.1,17.3-19.6,17.3
			C934.1,573.3,929.1,570.9,925.1,567.6z M955.7,540.9l3.7-17.9c-2.6-4.4-5.3-6.2-8.5-6.2c-8.1,0-15.5,10.3-15.5,21.2
			c0,6.8,2.8,10.1,7.5,10.1C946.8,548.2,951.8,545.7,955.7,540.9z"/>
		<path class="st0" d="M982.7,512.4h6.6l-8.4,41.7h-6.5L982.7,512.4z M984,499.9c0-2.8,2.3-5,5-5c2.2,0,4.2,1.5,4.2,3.9
			c0,2.8-2.3,4.9-5,4.9C986,503.7,984,502.3,984,499.9z"/>
		<path class="st0" d="M998.8,545.9c0-1.7,0.3-3.1,0.4-4.6l4.9-23.5H998l0.9-4.9l6.5-0.4l3.1-11.5h5.6l-2.3,11.5h10.6l-1,5.3h-10.7
			l-4.9,23.9c-0.2,1-0.3,2-0.3,3.1c0,3.4,1.4,5.2,5.3,5.2c1.6,0,3.1-0.7,4.4-1.3l1.5,4.7c-1.9,0.9-4.6,1.9-7.9,1.9
			C1001.5,555.1,998.8,551,998.8,545.9z"/>
		<path class="st0" d="M1024,540c0-16.1,11-28.7,22.6-28.7c4.5,0,8.1,2.5,10,6.3h0.3l1.6-5.2h5.3l-8.3,41.7h-5.4l0.7-6.2h-0.3
			c-4,4.3-9.3,7.2-14.5,7.2C1028.8,555.1,1024,549.8,1024,540z M1051.6,541.7l3.8-18.6c-2.4-4.4-5.3-6.2-8.5-6.2
			c-8.3,0-16.1,10.6-16.1,22.1c0,7.2,3,10.6,7.6,10.6C1042.8,549.6,1047.5,547.1,1051.6,541.7z"/>
		<path class="st0" d="M1071.4,549.7c0-0.9,0.2-2.1,0.5-3.6l10.6-53.1h6.6l-10.7,53.5c-0.2,0.9-0.2,1.3-0.2,1.6c0,1,0.6,1.5,1.5,1.5
			c0.3,0,0.6,0,1.4-0.3l0.1,5.1c-1.1,0.4-2.3,0.7-4.1,0.7C1073.3,555.1,1071.4,553.2,1071.4,549.7z"/>
	</g>
	<rect x="87.9" y="119.6" class="st1" width="85.3" height="333"/>
	<path class="st1" d="M739.5,452.6h-85.3V258c0-4.7-0.7-10.9-1.9-18.4c-1.3-7.5-4.1-14.9-8.4-22c-4.3-7.1-10.6-13.1-18.8-18.1
		c-8.2-5-19.3-7.4-33.1-7.4c-19.5,0-35.2,6.3-47.1,18.7c-11.9,12.5-17.9,28.2-17.9,47.2v194.6h-85.3V258c0-4.7-0.7-10.9-1.9-18.4
		c-1.3-7.5-4-14.9-8.1-22c-4.1-7.1-10.3-13.1-18.5-18.1c-8.2-5-19.5-7.4-33.8-7.4c-19.1,0-34.5,6.3-46.5,18.7
		c-11.9,12.5-17.9,28.2-17.9,47.2v194.6h-85.3v-333h81.5l0,32.3c10.4-12.5,22.8-22.4,37.2-29.7c14.5-7.3,30.8-11,48.9-11
		c20.7,0,39.6,4.1,56.7,12.3c17.1,8.2,31.4,19.8,43.1,34.9c12.1-14.6,26.6-26.2,43.7-34.6c17.1-8.4,36.4-12.6,58-12.6
		c22.4,0,42.4,3.6,59.9,10.7c17.5,7.1,32.3,17.1,44.3,30.1c12.1,12.9,21.3,28.3,27.5,46.2c6.3,17.9,9.4,37.8,9.4,59.8V452.6z"/>
	<path class="st1" d="M959.5,394.4c-18,0-35-4.4-50-12.3c-9.4-4.9-20.6-4.5-29.3,1.4l-24.6,16.9l13.1-32.3
		c3.5-8.6,2.9-18.4-1.9-26.3c-8.9-15-14.4-32.2-15.1-50.8c-2.5-59.9,46.8-111.8,106.7-112.4c37.4-0.4,70.4,18.3,90,46.9
		c5.8-1.1,11.5-2.3,17.4-3.4c7.8-1.5,15.4-3,23-4.5c7.5-1.5,14.1-2.9,19.7-4.2c-12.1-32.3-31.7-57.4-58.8-75.3
		c-27.2-17.9-59.1-26.8-95.7-26.8c-25,0-48.1,4.6-69.2,13.9c-21.1,9.3-39.2,21.8-54.3,37.5c-15.1,15.7-26.9,34.3-35.6,55.6
		c-8.6,21.3-12.9,44.1-12.9,68.2c0,24.1,4.3,46.8,12.9,67.9c8.6,21.1,20.5,39.5,35.6,55.3c15.1,15.7,33.2,28.1,54.3,37.2
		c21.1,9.1,44.2,13.6,69.2,13.6c36.6,0,68.4-8.6,95.4-25.9c26.9-17.2,46.6-41.8,59.2-73.7l-60.5-12.7
		C1028.6,376,996.2,394.4,959.5,394.4z"/>
	<circle class="st2" cx="1018.2" cy="291.8" r="18.7"/>
	<circle class="st3" cx="960.7" cy="291.8" r="18.7"/>
	<circle class="st4" cx="903.2" cy="291.8" r="18.7"/>
	<circle class="st4" cx="646.5" cy="547" r="8.8"/>
	<circle class="st3" cx="832.5" cy="547" r="8.8"/>
	<circle class="st2" cx="1103.3" cy="547" r="8.8"/>
	<g>
		<path class="st5" d="M149.3,33.8c-0.9-1-1.7-1.9-2.9-2.4c-0.1,0-0.1-0.1-0.2-0.1c-1.5-1.4-3.3-1.8-5.2-2.1
			c-0.8-0.1-1.6-0.2-2.5-0.3c-0.3,0-0.6-0.1-0.9-0.1c-0.2,0-0.4,0-0.4-0.2c0-0.1,0.1-0.2,0.2-0.3c0.2-0.3,0.1-0.5-0.2-0.6
			c-0.2,0-0.3,0-0.5,0c-0.3,0-0.6,0-0.9,0.1c-0.5,0-1,0.1-1.3-0.4c-0.2-0.2-0.5-0.2-0.8-0.2c-0.6,0-1.2,0.2-1.8,0.4
			c-0.7,0.3-1.4,0.5-2.1,0.6c-0.1,0-0.2,0-0.2-0.1c-0.1-0.1,0-0.2,0.1-0.3c0.6-0.3,1.1-0.6,1.7-0.8c0.3-0.2,0.6-0.3,0.4-0.8
			c-0.1-0.2,0-0.3,0.5-0.7c0-0.2-0.2-0.2-0.3-0.2c-0.4,0-0.4-0.2-0.4-0.5c-0.1-0.3,0.2-0.4,0.3-0.4c0.9-0.2,1.9-0.3,2.8-0.3
			c0.5,0,1.1,0.1,1.6,0.1c0.3,0,0.6,0.1,0.9,0.4c0.3,0.3,0.8,0.5,1.2,0.5c0.2,0,0.4,0,0.4-0.2c0-0.1-0.2-0.2-0.3-0.2
			c-0.1-0.1-0.2-0.2-0.1-0.3c0.1-0.1,0.2-0.1,0.3-0.1c0.1,0,0.2,0,0.3,0.1c1,0.6,2.1,0.9,3,1.7c0.4,0.4,0.9,0.3,1.3-0.1
			c0.4-0.4,0.7-0.5,1.1-0.1c0.1,0.1,0.1,0.1,0.2,0.2c0.3,0.7,0.9,0.8,1.6,1c1,0.2,1.9,0.5,2.8,1c0.3,0.2,0.6,0.4,0.7,0.8
			c0.1,0.5,0.5,0.8,0.9,1.1c0.7,0.4,1.4,0.7,1.9,1.4c0.2,0.2,0.6,0.3,0.9,0.4c1.4,0.5,2.7,1.3,3.9,2.1c0.1,0.1,0.2,0.2,0.3,0.4
			c0,0-0.1,0.2-0.1,0.2c-0.2,0-0.3,0-0.5-0.1c-0.4-0.2-0.8-0.4-1.2-0.7c-0.5-0.4-1-0.1-1.5-0.1c0,0-0.1,0.2,0,0.2
			c0.1,0.1,0.3,0.3,0.5,0.4c0.4,0.2,0.8,0.3,1.1,0.5c0.3,0.1,0.5,0.3,0.6,0.6c0.1,0.3,0.3,0.5,0.6,0.5c0.3,0,0.4,0.2,0.6,0.4
			c0.3,0.3,0.6,0.6,0.9,0.8c0.2,0.2,0.4,0.2,0.5,0c0.1-0.2,0.1-0.4,0-0.6c-0.1-0.1-0.3-0.2-0.5-0.4c-0.1-0.1-0.2-0.3-0.2-0.4
			c0-0.1,0-0.2,0.1-0.2c0.1,0,0.2-0.1,0.2,0c0.6,0.6,1.2,1.2,1.8,1.9c0.1,0.1,0.1,0.2,0.1,0.3c-0.1,0.6,0.3,1.1,0.6,1.6
			c0.4,0.6,0.9,1.2,0.9,2c0,0.2,0.2,0.5,0.3,0.7c0.4,0.7,0.8,1.5,0.9,2.3c0.1,0.4,0.3,0.7,0.6,0.9c0.8,0.8,1.5,1.6,2.3,2.3
			c0.5,0.5,0.8,1,0.8,1.7c0,0.4,0,0.8,0.1,1.2c0.2,0.3,0,0.7,0.2,1c0,0.2,0,0.3,0.1,0.5c0.1,0.5-0.1,0.8-0.5,0.9
			c-0.2,0.2-0.5,0.4-0.4,0.7c0,0.4,0.1,0.7,0.3,1c0.1,0.1,0.3,0.2,0.4,0.1c0.7-0.1,1,0.3,1.1,0.9c0.2,0.7,0.3,1.4,0.3,2.1
			c0,0.5,0,0.9-0.3,1.3c-0.4,0.5-0.5,1-0.3,1.6c0.3,1.1,0,2.2-0.1,3.3c0,0.1,0,0.2-0.1,0.2c-0.1,0.1-0.2,0.1-0.3,0.1
			c-0.1,0-0.2-0.1-0.3-0.2c0-0.2,0-0.5,0-0.7c0-0.2,0-0.5,0-0.7c0-0.1-0.1-0.2-0.3-0.2c-0.4,0.1-0.7,0.4-0.6,0.8
			c0.7,1.6,0.5,3.2,0.1,4.7c-0.4,1.7-0.7,3.5-0.4,5.2c0.1,0.9,0,1.7-0.2,2.6c-0.2,0.7-0.8,1-1.3,1.4c-0.1,0-0.2,0-0.2,0
			c-0.2-0.1-0.4-0.2-0.6,0c-0.3,0.3-0.5,0.7-0.4,1.1c0,0.1,0.2,0.1,0.3,0.1c0.4,0,0.4,0.1,0.3,0.4c-0.2,0.5-0.4,0.9-0.9,1.1
			c-0.2,0.1-0.4,0.3-0.3,0.5c0.1,0.5-0.2,0.8-0.5,1.1c-0.5,0.4-0.9,1-1.3,1.5c-0.1,0.1-0.2,0.2-0.2,0.3c0,0.8-0.6,1.2-1.2,1.6
			c-0.2,0.1-0.3,0.3-0.5,0.4c-0.2,0.2,0,0.6-0.2,0.8c0,0.1,0,0.1,0,0.2c-0.2,0.1,0,0.4-0.2,0.5l0,0c-0.1,0.1-0.2,0.2-0.2,0.3l0,0
			c-0.1,0.1-0.2,0.2-0.3,0.3c-0.4,0.1-0.8,0.3-1.2,0.4c-0.7,0.1-1.2,0.5-1.6,1.1c-0.3,0.5-0.6,1-0.9,1.5c-0.2,0.4-0.5,0.7-0.9,1
			c-0.2,0.2-0.5,0.3-0.8,0.2c-0.4-0.2-0.6,0-0.9,0.2c-0.7,0.5-1.3,1.1-1.6,2c-0.2,0.6-0.6,1.1-1,1.6c-0.3,0.4-0.3,0.4,0.3,0.5
			c0.3-0.1,0.3,0,0.2,0.2c-0.4,0.3-0.8,0.6-1.1,1c-0.4,0.4-0.8,0.8-0.9,1.4c0,0.2-0.2,0.2-0.4,0.1c-0.2-0.2-0.3-0.5-0.6-0.3
			c-0.4,0.2-0.8,0.3-0.8,0.8c0,0.5-0.4,0.8-0.8,1c0,0-0.1,0-0.2,0c0.1-0.7-0.5-0.5-0.8-0.6c-0.1-0.1-0.2-0.2-0.1-0.3
			c0-0.1,0.1-0.2,0.2-0.3c0.2-0.2,0.4-0.4,0.6-0.6c0.3-0.3,0.5-0.6,0.8-0.9c0.1-0.1,0.2-0.3,0.1-0.4c-0.2-0.3-0.1-0.5,0.2-0.7
			c0.1-0.1,0.2-0.2,0.2-0.3c0.1-0.2-0.1-0.5-0.3-0.5c-0.9,0.1-1.7,0.3-2.2,1.1c-0.2,0.4-0.4,0.7-0.7,1c-0.1,0.3,0,0.4,0.3,0.3
			c0.1,0,0.2,0,0.2,0c0.2,0,0.3,0.1,0.2,0.3c-0.4,0.5-0.6,1.1-0.8,1.7c-0.2,0.6-0.2,0.6-0.9,0.6c-0.3,0-0.5,0.1-0.7,0.2
			c-0.3,0.2-0.6,0.3-0.9,0.5c-0.1,0-0.2,0-0.2-0.1c0,0,0-0.1,0-0.1c0.1-0.1,0.2-0.3,0.3-0.4c0.2-0.3,0.5-0.6,0.7-0.9
			c-0.5-0.2-0.9,0-1.3,0c-0.4,0-0.7-0.1-1.1,0c-0.1,0-0.3,0.1-0.4,0.2c-0.4,0.5-0.9,0.4-1.4,0.4c-0.5,0-0.7-0.5-1.2-0.6
			c-0.2-0.1-0.1-0.3-0.1-0.4c0-0.6-0.4-1-0.8-1.3c-0.4-0.2-1,0-1.2,0.4c-0.4,0.5-0.8,0.7-1.3,0.5c0,0-0.1,0-0.1,0
			c-1.1,0.3-2.2,0.1-3.3,0c-0.8-0.1-1.5,0.1-2,0.8c-0.2,0.3-0.5,0.4-0.7,0.7c-0.1,0.1-0.2,0.3,0,0.4c0.3,0.3,0.3,0.5,0.1,0.9
			c-0.1,0.2,0,0.3,0.2,0.3c0.6,0.1,1.1-0.1,1.7-0.2c0.6-0.3,1.4-0.6,1.8-1.2c1.1-0.1,2.2,0,3.3,0.3c0.2,0,0.1,0.3,0.1,0.4
			c-0.1,0.3,0,0.4,0.3,0.3c0.5,0,1-0.1,1.3-0.5c0.2-0.2,0.4-0.1,0.6-0.1c0.1,0,0.2,0.1,0.3,0.2c0.1,0.1,0,0.2-0.1,0.3
			c-0.2,0.1-0.4,0.2-0.5,0.3c-0.2,0.5-0.7,0.4-1.1,0.4c0,0-0.1,0-0.1,0c-0.4,0.7-0.9,0.8-1.6,0.6c-0.3-0.1-0.6-0.1-0.8-0.1
			c-0.3,0-0.7-0.1-0.9-0.3c-0.6-0.6-1.4-0.4-2.1-0.2c-0.3,0.1-0.5,0.3-0.8,0.4c-0.7,0.3-1.3,0.3-2,0.2c-0.3,0-0.4-0.2-0.5-0.5
			c-0.3-1-0.4-1-1.4-0.8c-0.1,0-0.2,0.1-0.3,0.1c-0.1,0.2-0.4,0.1-0.5,0.2c-0.5-0.2-0.6-0.3-0.2-0.6c0.1-0.1,0.2-0.1,0.2-0.3
			c-0.5-0.1-1.1-0.3-1.5-0.6c-0.2-0.1-0.5-0.1-0.7-0.2c-0.7-0.1-1.4,0-2.1,0.2c-0.4,0.1-0.7,0.2-1.1,0.3c-1.6,0.5-3,0-4.2-1.1
			c-0.3-0.2-0.5-0.4-0.8-0.5c-1.5-0.5-2.8-1.2-4.1-2c-0.1,0-0.1-0.1-0.2-0.1c-1.3-0.5-2.3-1.4-3-2.6c0.7-1,1.8-1.1,2.4-0.2
			c0.5,0.6,1,1,1.8,1.2c0.6,0.1,1.3,0.3,1.8,0.8c0.6,0.5,1.3,0.2,2,0.2c0.5,0,1,0.2,1.1,0.8c0.1,0.6-0.2,0.9-0.7,1
			c1.1,0.3,1.9,1.3,3,1.4c-0.5-0.1-1.2-0.4-1.8-0.9c-0.7-0.5-0.6-1,0.2-1.3c0.1,0,0.2,0,0.2-0.1c0.4-0.2,1.4-0.2,1.1-0.8
			c-0.2-0.5-1-1.2-1.8-0.6c-0.1,0.1-0.2,0.1-0.3,0.2c-0.2,0-0.3,0-0.5,0c-2.1-0.9-4.2-2.1-5.4-4.1c-0.4-0.7-0.9-0.8-1.5-0.8
			c-1.3,0-2.2-0.8-3.2-1.5c-0.1,0-0.2-0.1-0.3-0.2c-0.2-0.2-0.2-0.4-0.3-0.6c-1.1-1.3-2.3-2.5-3.4-3.8c-0.3-0.3-0.7-0.4-1.1-0.3
			c-0.9,0.2-1.8,0.3-2.7,0.5c-0.4,0.1-0.7,0-0.9-0.2c-0.9-0.9-1.6-1.9-2.1-3c-0.1-0.2-0.2-0.3-0.1-0.5c0.1-0.6-0.2-1-0.5-1.5
			c-0.2-0.4-0.2-0.4,0.4-0.6c0.1-0.1,0.2-0.1,0.3,0c0.1,0.8,0.6,1.3,1.2,1.8c0.4,0.1,0.8,0.4,0.8,0.7c0.1,0.7,0.6,0.5,1,0.5l0,0
			c0.2,0.1,0.1,0.4,0.2,0.5c0.6,0.5,1.2,0.6,1.8,0.1c0.3-0.2,0.3-0.6,0-0.8c-0.3-0.2-0.5-0.4-0.8-0.5c-0.1-0.1-0.3-0.1-0.3,0
			c-0.5,0.6-0.8,0.2-1.1-0.1c-0.6-0.6-1.2-1.2-1.7-1.8c-0.3-0.4-0.7-0.9-0.7-1.4c0-0.2-0.1-0.4-0.2-0.5c-0.7-0.5-0.6-1.2-0.8-1.9
			c-0.1-0.2,0-0.4,0.1-0.6c0.3-0.4,0.2-0.8,0-1.2c-0.2-0.5-0.5-1.1-0.7-1.6c-0.2-0.6-0.6-1.1-0.3-1.8c0.1-0.3-0.1-0.7-0.2-1.1
			c-0.2-0.3-0.4-0.6-0.6-0.9c-0.2-0.2-0.2-0.5,0-0.7c0.5-0.5,0.6-1,0.3-1.7c-0.1-0.3-0.2-0.5-0.1-0.8c0.1-0.3,0-0.6-0.3-0.9
			c-0.3-0.3-0.1-0.7-0.2-1.1c-0.1-0.2-0.2-0.4-0.4-0.3c-0.2,0-0.3,0.2-0.3,0.3c-0.1,0.3-0.1,0.6-0.2,0.8c0,0.1-0.2,0.2-0.3,0.1
			c-0.1-0.1-0.2-0.2-0.2-0.3c0.2-0.6,0.4-1.2,0.5-1.9c-0.1-0.1-0.1-0.2,0-0.4l0,0c0.1-0.1,0.2-0.1,0.3-0.2c0.5-0.5-0.2-1.3,0.6-1.7
			c0.2,0,0.4,0,0.6,0c0.3,0,0.5-0.2,0.5-0.4c0.1-0.4,0.1-0.7,0.3-1c0.4-1-0.2-2,0.2-3c0-0.4,0-0.8,0-1.2c0-0.2,0-0.5-0.1-0.6
			c-0.5-0.8-0.3-1.6-0.4-2.4c0-0.3-0.2-0.4-0.5-0.2c-0.2,0.1-0.3,0-0.4-0.2c-0.1-0.5-0.3-1-0.4-1.4c-0.1-0.5-0.2-0.5,0.3-0.8
			c0.2-0.2,0.3-0.4,0.4-0.6c0.5-1.2,1-2.5,1.4-3.7c0.2-0.5,0.3-1,0.3-1.6c0-0.6,0.3-1,0.7-1.4c0.2-0.2,0.5-0.3,0.7-0.5
			c0.2-0.2,0.5-0.4,0.7-0.7c0.4-0.5,0.7-1,0.3-1.7c-0.1-0.2,0.1-0.4,0.3-0.3c0.3,0.1,0.5,0.1,0.6-0.2c0.2-0.4,0.3-0.9,0.6-1.2
			c0.2,0,0.4,0,0.3,0.3c0,0.2-0.1,0.4-0.1,0.6c0,0.1,0.1,0.2,0.2,0.2c0.5,0,0.5,0,0.4,0.4c-0.1,0.4-0.3,0.7-0.4,1.1
			c0,0.1,0,0.3,0.1,0.3c0.1,0.1,0.3,0,0.4-0.1c0.3-0.3,0.4-0.7,0.4-1.1c0-0.3,0-0.6,0.1-0.9c0-0.3,0.1-0.7,0.4-0.9
			c0.1-0.1,0.2-0.2,0.3-0.2c0.2,0.1,0.2,0.2,0.1,0.4c-0.1,0.3-0.2,0.5-0.3,0.8c-0.1,0.2-0.1,0.5,0.1,0.5c0.2,0.1,0.5-0.1,0.5-0.3
			c0.3-0.8,0.8-1.4,1.3-2c0.2-0.2,0.2-0.5,0.2-0.8c0-0.3,0-0.7,0.1-1c0.1-0.6,0-0.9-0.5-1.4c-0.8-0.7-0.7-1.1,0.2-1.7
			c0.1-0.1,0.3-0.1,0.5-0.2c0.4-0.1,0.7,0.2,0.6,0.5c-0.2,0.5-0.2,0.9,0,1.4c0.1,0.2,0,0.6,0,0.9c0,0.3,0.2,0.5,0.4,0.7
			c0.2,0.2,0.5,0.2,0.7,0c0.2-0.1,0.4-0.4,0.3-0.6c-0.3-0.5,0-0.8,0.4-1.1c0.5-0.5,1-0.9,1.5-1.4c0.5-0.5,0.6-1.2,1-1.7
			c0.3-0.5-0.8-0.2-0.5-0.7c0.7-0.3,1.4-0.5,2.1-0.8c0.3-0.1,0.4,0,0.4,0.3c0,0.1,0.1,0.2,0.3,0.2c0.8-0.2,1.4-0.6,1.9-1.2
			c0.1-0.2,0.2-0.4,0.3-0.7c0.3-0.5,0.4-0.5,0.7,0.1c0.1,0.2,0.3,0.4,0.5,0.5c0.6,0.3,1.1,0.2,1.7,0.2c0.3-0.1,0.3,0,0.3,0.3
			c0.1,0.4,0.2,0.7-0.2,1c-0.4,0.3-0.6,0.6-0.7,1.1c-0.1,0.5-0.5,0.9-1,1.2c-0.5,0.4-1.1,0.8-1.6,1.1c-0.5,0.3-0.9,0.7-1.2,1.2
			c-0.7,1-1.2,2-1.5,3.2c0.4,0-0.3,1,0.5,0.5c0.4-0.3,0.5-0.7,0.5-1.2c0.1-0.5,0.3-1,0.9-1.1l0,0c0,0.2,0.1,0.4,0.3,0.5
			c0.4,0,0.8,0,1.1-0.4c0.7-0.7,1.5-1.4,2.3-2.1c0.2-0.2,0.4-0.1,0.5,0c0.5-0.3,1.1-0.4,1.5-0.9c0.1-0.2,0.3-0.2,0.5,0
			c0.3,0.2,0.6,0.6,1.1,0.2c0,0,0.1,0.1,0.2,0.1c0,0,0,0.1,0,0.1c-0.1,0.2-0.2,0.4-0.4,0.5c-0.3,0.3-0.7,0.6-1,0.9
			c-0.3,0.3-0.7,0.6-1.1,0.7c-0.2,0.1-0.5,0.2-0.7,0.3c-0.5,0.3-0.6,0.6-0.3,1.2c0.1,0.2,0.2,0.4,0,0.6c-0.3,0.3-0.6,0.4-0.9,0.2
			c-0.2-0.2-0.4-0.2-0.7-0.2c-0.4,0.1-0.5,0.2-0.5,0.6c0,0.5-0.1,1-0.1,1.5c0,0.1-0.1,0.1-0.2,0.1c0,0-0.1-0.1-0.2-0.1
			c0-0.2-0.1-0.3-0.3-0.3c-0.3,0.1-0.6,0.3-0.8,0.5c-0.3,0.3-0.4,0.7-0.3,1.1c0.1,0.2,0.1,0.3,0.2,0.5c0.2,0.4,0.1,0.7-0.2,1
			c-0.3,0.3-0.6,0.6-0.9,0.9c-0.2,0.2-0.3,0.6-0.6,0.6c-0.4-0.1-0.2-0.6-0.3-0.8c0-0.1,0-0.2-0.1-0.2c-0.1-0.2-0.4-0.3-0.5-0.1
			c-0.4,0.2-0.6,0.6-0.8,1c-0.1,0.3-0.1,0.6,0.1,0.8c0.3,0.4,0.6,0.8,0.2,1.4c0,0,0,0.1,0,0.1c0.4,0.7,0,1.1-0.6,1.4
			c-0.8,0.4-1.1,1.1-1,2c0.1,0.8-0.5,1.3-0.8,1.9c-0.1,0.2-0.5,0.1-0.6-0.2c-0.2-0.6-0.2-0.5-0.7-0.4c-0.2,0.1-0.5,0.2-0.7,0.3
			c-0.3,0.2-0.6,0.4-0.7,0.8c-0.5,1.4-0.8,2.9-0.9,4.5c0,0.3,0,0.7,0.3,0.9c0.5,0.5,0.6,1.1,0.6,1.7c0.1,0.8,0.1,1.7,0.2,2.5
			c0.1,0.3-0.1,0.4-0.4,0.4c-0.3,0-0.7,0-1,0c-0.5-0.1-0.6-0.6-0.7-0.9c-0.2-1.1-0.9-2-1.1-3c0-0.1-0.1-0.2-0.1-0.2
			c-0.1-0.1-0.1-0.1-0.2-0.2c-0.1-0.1-0.1-0.1-0.2-0.2c-0.1-0.1-0.1-0.1-0.2-0.2c-0.1-0.1-0.1-0.2-0.2-0.2c-0.2-0.2-0.3-0.4-0.5-0.5
			c-0.8-0.4-0.9-1-0.8-1.8c0.1-1.7,1.1-3.3,2.6-3.9c0.4-0.2,0.6-0.5,0.9-0.8c0.4-0.5,1-1-0.2-1.3c-0.4-0.4-0.7-0.5-1.1-0.1
			c-0.2,0.3-0.5,0.5-0.6,0.9c-0.2,1.2-0.7,2.2-1.2,3.3c-0.5,1.2-0.7,2.4,0.1,3.7c0.3,0.4,0.3,0.9,0.3,1.4c0,0.7,0.4,0.5,0.8,0.4
			c0.4,0,0.8,0.2,0.9,0.5c0.3,1.2,1,2.2,1.1,3.5c0.2,0.7,0.8,1.3,0.9,2c0,0.3,0.3,0.3,0.6,0.3c0.3,0,0.5,0.1,0.4,0.4
			c-0.1,1.1,0.1,2,0.9,2.8c0.2,0.2,0.1,0.5,0,0.7c-0.2,0.2-0.5,0.4-0.8,0.6c-0.4,0.3-0.4,0.6-0.2,1c0.1,0.2,0.3,0.4,0.5,0.6
			c0.2,0.2,0.4,0.3,0.6,0.5c0.6,0.3,0.9,0.8,0.8,1.5c0,0.1,0,0.2,0,0.4c0.1,0.5,0.2,0.6,0.7,0.7c0.2,0.1,0.5,0.1,0.7,0.1
			c0.7,0.2,1,0.5,0.7,1.2c-0.2,0.4-0.1,0.6,0.2,0.9c0.5,0.5,1.1,1,1.6,1.6c0.3,0.3,0.5,0.5,0.8,0.8c0.3,0.3,0.6,0.7,0.2,1.2
			c-0.3,0.4-0.2,0.9-0.1,1.4c0.1,0.6,0.3,1.1,0.4,1.7c0.1,0.4,0.2,0.7,0.6,0.8c0.1,0,0.2,0.1,0.3,0.2c0.3,0.2,0.5,0.1,0.6-0.1
			c0.1-0.1,0.3-0.3,0.3-0.4c0-0.7,0.5-0.7,1-0.7c0.8,0,1.5,0.2,2.1,0.7c0.1,0.1,0.1,0.2,0,0.3c-0.1,0-0.2,0.1-0.2,0.1
			c-0.1-0.1-0.3-0.2-0.4-0.3c-0.3-0.3-0.6-0.2-0.9-0.1l0,0c0,0.4,0,0.7-0.2,1.1c-0.2,0.4-0.1,0.8,0.3,0.9c0.5,0.1,0.8,0.6,1.2,0.8
			c0.1,0,0.2,0.1,0.1,0.3c-0.1,0.1-0.2,0.2-0.3,0.1c-0.4,0-0.7-0.1-1.1,0.1c-0.3,0.2-0.7,0-1.1-0.1c-0.4-0.1-0.8-0.2-1.2-0.2
			c-0.1,0-0.3,0.1-0.2,0.2c0,0.1,0.1,0.2,0.1,0.3c0.2,0.2,0.4,0.2,0.7,0.2c0.3,0,0.6,0,0.9,0c0.6,0,1.1,0.1,1.4,0.6
			c0.2,0.3,0.5,0.3,0.8,0.2c0.3-0.1,0.6-0.2,0.9,0.1c0.1,0.1,0.3,0.1,0.5,0.1c0.7,0,1.5,0,2.3-0.3c-0.3-0.5-0.9-0.5-1.2-0.9
			c-0.3-0.4-0.7-0.7-1-1.1c0.1-0.2,0.4,0,0.6,0c0.8,0.1,1.5,0.4,2.2,0.6c0.2,0.1,0.3,0.2,0.5,0.4c0.3,0.3,0.7,0.6,1,0.9
			c0.3,0.3,0.7,0.4,1.1,0.3c0.2-0.1,0.5-0.2,0.7,0c0.7,0.3,1.3,0.1,1.9-0.1c0.4-0.2,0.6-0.1,0.8,0.3c0.6,0.7,0.6,0.7,1.4,0.5
			c0.2-0.1,0.4-0.2,0.6-0.2c0.1,0,0.2,0,0.2,0.1c0.1,0.1,0,0.2-0.1,0.3c-0.2,0.1-0.5,0.2-0.7,0.3c-0.1,0-0.1,0.1-0.1,0.2
			c0,0.1,0.1,0.2,0.1,0.2c1.1,0.4,2.3,0.4,3.3-0.3c0.3-0.2,0.7-0.3,1-0.4c0.1,0,0.2,0,0.2,0c0.2,0.6,0.8,0.2,1.1,0.3
			c0,0,0,0.1,0.1,0.1c-0.1,0.3-0.5,0.2-0.6,0.5c0.5,0.4,1.1,0.6,1.8,0.6c0.4,0,0.9-0.1,1.3,0.2c0.3,0.2,0.5-0.2,0.6-0.4
			c-0.4-0.5,0.2-0.9,0.3-1.3c-0.2-0.2-0.4-0.4-0.4-0.7c-0.1-0.4,0.2-0.7,0.6-0.6c0.6,0.1,1.1,0.4,1.7,0.3c0.1,0.7-0.1,1.2-0.7,1.4
			c-0.3,0.1-0.5,0.3-0.3,0.6c0.1,0.3-0.1,0.5-0.1,0.7c0,0.3,0.2,0.5,0.4,0.5c0.4,0,0.6-0.1,0.8-0.4c0.2-0.3,0.4-0.7,0.6-1.1
			c0.3-0.5,0.5-1.1,1.3-1.1c0.4,0,0.6-0.5,0.5-1c0-0.2-0.1-0.5-0.2-0.7c-0.1-0.3,0-0.7,0.1-1c0.1-0.1,0.2-0.2,0.2-0.3
			c0.1-1,0.9-1.3,1.6-1.7c0.8-0.4,1.6-0.8,2.5-1.1c0.8-0.3,1.5-1,2.1-1.7c0.2-0.3,0.4-0.6,0.7-0.7c1.3-0.1,1.5,0.1,1,1.3
			c-0.4,0-0.8,0.1-1.1,0.5c-0.1,0.1-0.2,0.2-0.2,0.3c-0.2,0.3-0.6,0-0.8,0.1c-0.3,0.2,0.1,0.5-0.1,0.8c-0.1,0.1-0.2,0.2-0.3,0.3
			c-0.3,0.1-0.5,0.2-0.8,0.4c-0.3,0.1-0.7,0-1,0.2l0,0c-0.1,0.1-0.2,0.1-0.3,0.2c-0.4,0.2-0.9,0.4-1.1,0.9c-0.3,0.5-0.7,0.6-1.3,0.6
			c-0.5,0-0.6,0.2-0.6,0.6c0,0.6,0,1.2,0.1,1.8c0.1,0.9,0.1,1.8,0.2,2.7c0,0.4,0.2,0.5,0.6,0.4c0,0,0.1,0,0.1,0c1.7-0.6,3.4-1.2,5-2
			c0.1-0.2,0.4-0.1,0.5-0.3l0,0c0.1-0.1,0.2-0.1,0.3,0c0.6,0.3,0.6,0.6,0.3,1.2c-0.4,0.7-0.9,1.6-1.8,1.3c-0.8-0.2-1.3,0-1.7,0.2
			c-0.4,0.2-0.3-0.1-0.2,0.1c0,0,0.1,0.1,0.1,0c0.5-0.4,1-0.4,1.6-0.3c1.1,0.3,1.6-0.7,2.1-1.5c0.4-0.6,0.1-0.9-0.4-1.1
			c-0.1-0.2-0.1-0.3,0.2-0.4c0.5,0,1,0,1.5-0.2c0.8-0.3,1.5-0.8,1.8-1.7c0.2-0.5,0.5-0.9,0.6-1.5c0.2-0.5,0.5-0.8,1.1-0.8
			c0.4,0,0.7-0.1,1.1-0.3c0.4-0.2,0.7-0.5,0.5-1c0-0.2,0-0.3,0-0.5c0.2-0.4,0.5-0.7,1-0.7c0.5-0.4,1.1-0.7,1.5-1.3
			c0.1-0.2,0.3-0.2,0.4-0.2c0.2,0,0.4,0.1,0.6,0.1c0.4,0,0.6-0.2,0.5-0.6c-0.1-0.2-0.1-0.3-0.2-0.4c-0.2-0.3-0.1-0.5,0.1-0.8
			c0.1-0.2,0.3-0.3,0.5-0.4c0.6-0.4,0.8-1,0.6-1.6c-0.4-1.1,0-2.1,0.5-3.1c0.3-0.5,0.5-1,0.7-1.5c0.2-0.4,0.4-0.7,0.9-0.8
			c0.1,0,0.2,0,0.4-0.1c0.7-0.2,0.8-0.4,0.6-1.1c-0.1-0.4-0.3-0.8-0.4-1.2c0-0.1-0.1-0.2-0.3-0.2c-0.2,0.1-0.2,0.2-0.2,0.4
			c0.1,0.2,0.2,0.4,0.3,0.7c0.1,0.2-0.1,0.4-0.5,0.4c-0.2,0-0.4,0-0.5-0.3c0-0.7,0.2-1.4,0.4-2.1c0.1-0.2,0.3-0.4,0.5-0.6
			c0.4-0.3,0.7-0.5,1.1-0.8c0.5-0.4,0.7-1,0.5-1.7c0-0.1-0.1-0.2-0.1-0.4c-0.3-0.6-0.2-1.2,0.1-1.8c0.4-1,0.4-2.3-0.1-3.3
			c-0.1-0.2-0.1-0.3-0.2-0.5c-0.1-0.3,0-0.4,0.4-0.5c0.1,0,0.3,0,0.3-0.1c0.2-0.1,0.1-0.3,0.1-0.5c-0.2-0.9-0.7-1.7-1.2-2.4
			c-0.2-0.3-0.4-0.5-0.6-0.8c-0.1-0.2-0.2-0.4-0.1-0.6c0.1-0.2,0.2-0.3,0.4-0.2c0.2,0.1,0.3,0.2,0.5,0.3c0.2,0.1,0.3,0,0.3-0.2
			c0-0.1-0.1-0.2-0.1-0.2c0-0.4,0.1-0.4,0.4-0.4c0.2,0,0.3,0.1,0.5,0.1c0.1,0,0.2-0.1,0.2-0.1c0-0.1,0-0.2,0-0.2
			c-0.4-0.3-0.6-0.6-0.6-1.1c-0.1-0.4-0.7-0.3-0.8-0.7c-0.2-0.3,0.1-0.7-0.2-0.9c-0.4-0.4-0.6-0.9-1-1.3c-0.1-0.2-0.3-0.1-0.4,0.1
			c-0.2,0.3-0.4,0.3-0.5,0.1c-0.2-0.2-0.3-0.4-0.3-0.7c0.1-0.7-0.1-1.3-0.5-1.9c-0.2-0.4-0.3-0.8-0.1-1.2c0.1-0.3,0-0.5-0.2-0.7
			c-1.2-1.5-2.4-3-4-4.3c-0.6-0.5-1-0.9-1-1.7c0-0.3-0.2-0.6-0.4-0.7c-0.4-0.2-0.8-0.4-1.2-0.6c-0.6-0.3-1.2-0.5-1.8-0.9
			C149.7,34.3,149.5,34.1,149.3,33.8z"/>
		<path class="st5" d="M166.2,79.8c0.6-0.1,0.8-0.5,1-1c0.1-0.2,0-0.3-0.2-0.3c-0.3,0-0.5-0.2-0.4-0.4c0.1-0.9,0.2-1.7,0.4-2.6
			c0-0.2,0.1-0.4,0.2-0.4c0.7-0.3,0.5-0.9,0.5-1.4c0-0.1,0.1-0.2,0.2-0.2c0,0,0.1,0,0.1,0.1c0.1,0.3,0.3,0.4,0.4,0
			c0.4-1,0.8-2.1,0.8-3.2c0-0.9,0.3-1.8,0.4-2.7c0.1-0.6,0-1.3,0.2-1.9c0.2-0.7,0.5-1.4,0.6-2.1c0-0.2,0.2-0.3,0.4-0.4
			c0.4-0.2,0.5-0.4,0.3-0.8c-0.1-0.3-0.3-0.7-0.4-1c-0.2-0.3-0.4-0.7-0.4-1c-0.2-0.8,0-1.1,0.9-1.4c0.2,0.4,0,0.8,0.2,1.2
			c0,0.1,0.1,0.1,0.2,0.1c0.1,0,0.2-0.1,0.2-0.1c0.1-0.6,0.6-0.9,1-1.4c0.3,0.3,0.2,0.7,0.2,1.1c-0.1,4.1-0.5,8.2-1.7,12.1
			c-0.5,1.5-1,3-1.6,4.4c-0.2,0.4-0.3,0.8-0.4,1.3c-0.1,0.5-0.2,1-0.7,1.3c-0.2,0.1-0.3,0.4-0.4,0.6c-0.3,0.9-0.8,1.6-1.3,2.4
			c-0.3,0.4-0.5,0.7-0.4,1.3c0.1,0.2-0.1,0.4-0.2,0.5c-0.4,0.4-0.9,0.8-1.3,1.1c-0.1,0.1-0.2,0.1-0.3,0.1c-0.1,0-0.1-0.2-0.1-0.3
			c-0.2-0.7-0.2-1.4,0.4-2c0.2-0.2,0.3-0.5,0.4-0.8c0.1-0.1,0-0.3-0.2-0.4c-0.6-0.2-0.6-0.3-0.4-0.7c0.2-0.7,0.4-1.3,0.7-2
			c0.3-0.3,0.3,0,0.3,0.1C165.6,79.2,165.8,79.5,166.2,79.8z"/>
		<path class="st5" d="M153.3,69.1c0.1-0.1,0.2-0.2,0.3-0.3c0.2-0.2,0.4-0.2,0.6-0.1c0.2,0.1,0.3,0.3,0.2,0.5
			c-0.1,0.3,0,0.5,0.3,0.7c0.2,0.1,0.3,0.3,0.4,0.4c0.1,0.1-0.1,0.6-0.2,0.6c-0.2,0.1-0.2-0.1-0.3-0.3c0-0.1,0-0.2-0.1-0.2
			c-0.1-0.2-0.3-0.2-0.4-0.1c-0.4,0.6-0.8,1.3-1.4,1.8c-0.3,0.2-0.2,0.6-0.1,0.9c0.1,1.1,0.2,2.2,0.2,3.3c0,0.7-0.1,1.4-0.3,2.1
			c-0.1,0.3-0.2,0.6-0.3,0.8c-0.3,0.6-0.7,0.7-1.3,0.4c-0.3-0.2-0.4-0.2-0.6,0.1c-0.2,0.4-0.6,0.2-0.9,0.1c-0.3-0.1-0.3-0.4-0.3-0.6
			c0-1.6,0-3.1-0.3-4.7c-0.1-0.8,0.1-1.4,0.7-1.9c0.5-0.4,0.8-1.1,1.5-1.2c0.1,0,0.1-0.1,0.2-0.2c0.4-0.9,1.2-1.5,1.3-2.5
			C152.9,68.7,153.1,69,153.3,69.1z"/>
		<path class="st5" d="M158.9,86.5c0.1-0.1,0.2-0.2,0.3-0.3c0.4-0.3,0.5-0.4,0.8,0c0.2,0.3,0.5,0.3,0.7,0.1c0.3-0.2,0.5-0.4,0.7-0.6
			c0.3-0.2,0.5-0.2,0.5,0.2c-0.4,0.6-0.9,1.1-1.3,1.7c-0.3,0.3-0.4,0.6-0.4,1c-0.3,0.5-0.4,1-0.5,1.5c-0.1,0.4-0.2,0.9-0.4,1.3
			c-0.3,0.4-0.5,0.7-1.1,0.5c-0.6-0.2-1.2,0.1-1.7,0.6c-0.2,0.2-0.5,0.5-0.7,0.7c-0.2,0.2-0.1,0.3,0,0.5c0.3,0.4,0.2,0.6-0.1,0.7
			c-0.5,0.2-1,0.3-1.6,0.4c-0.5,0-0.5,0-0.8-0.6c-0.1-0.2-0.1-0.4,0.1-0.5c0.2-0.1,0.3-0.3,0.5-0.4c0.1-0.1,0.2-0.3,0.2-0.3
			c-0.3-0.5,0.1-0.6,0.4-0.8c0.2-0.2,0.4-0.4,0.4-0.6c-0.2-0.6,0.2-0.7,0.6-1c0.8-0.4,1.5-0.9,2.3-1.3c0,0,0.1,0,0.1-0.1
			c0.4-0.6,0.9-1.3,1.3-1.9c0-0.1-0.1-0.2-0.1-0.3l0,0C159,87,159,86.7,158.9,86.5L158.9,86.5z"/>
		<path class="st5" d="M105.1,91.4c0.1,0.4,0.4,0.5,0.7,0.8c0.1,0.1,0.2,0.2,0.3,0.3c0.2,0.3,0.1,0.5-0.3,0.6c-0.1,0-0.2,0-0.2,0
			c-0.1-0.1-0.2-0.3-0.3-0.4c-0.7-1.3-1.9-2.1-3.1-2.9c-0.6-0.4-1.2-0.6-1.8-0.7c-0.2-0.1-0.4-0.3-0.5-0.4l0,0c-0.1-0.2,0-0.3,0-0.5
			c0.4-0.7-0.3-0.8-0.7-1c-0.3-0.2-0.8-0.2-0.8-0.7c0-0.3-0.1-0.6-0.2-0.9c-0.1-0.2,0.1-0.5,0.4-0.5c0.4,0,0.8,0.2,1.1,0.5
			c0.3,0.4,0.6,0.6,1,0.8c0.3,0.1,0.6,0.3,0.7,0.6c0.3,0.8,0.9,1.2,1.7,1.5c0.3,0.3,0.7-0.1,1,0.3l0,0c0.5,1,1.5,1.4,2.5,1.7
			c0.3,0.1,0.7,0.3,1,0.4c0.2,0.1,0.4,0.2,0.4,0.5c0,0.2,0.2,0.4,0.3,0.5c0.2,0.1,0.5,0.3,0.8,0.4c0.1,0.1,0.3,0.2,0.2,0.4
			c-0.1,0.3-0.3,0.2-0.5,0.1c-0.3-0.1-0.5-0.2-0.8-0.3c-0.1-0.1-0.4-0.2-0.5-0.1c-0.6,0.5-0.8,0.1-1-0.4c-0.2-0.3-0.4-0.5-0.8-0.5
			C105.5,91.5,105.3,91.5,105.1,91.4L105.1,91.4z"/>
		<path class="st5" d="M171.3,50.5c0.3,0.8,0.4,1.7,0.5,2.5c0.1,0.4,0,0.8-0.3,1.2c-0.2,0.3-0.4,0.5-0.4,0.9c0,0.3,0,0.5,0.4,0.5
			c0.2,0,0.4,0,0.5,0.3c0.2,0.7,0.1,1.4,0.1,2.1c0,0-0.1,0.1-0.2,0.1c-0.2-0.1-0.3-0.3-0.4-0.5c-0.2-0.4-0.2-0.9-0.9-0.8
			c-0.1,0-0.2-0.2-0.3-0.4c-0.2-1.1-0.5-2.2-0.7-3.3c-0.2-1.1-0.4-2.3-0.7-3.4c-0.1-0.2-0.1-0.4,0-0.6c0-0.1,0.1-0.1,0.2-0.1
			c0.1,0,0.2,0,0.2,0.1c0.1,0.1,0.1,0.2,0.2,0.3c0.1,0.7,0.6,1.3,1,1.8c0.2,0.3,0.3,0.2,0.5-0.2c0,0,0-0.1,0-0.1
			C171,50.5,171.1,50.5,171.3,50.5z"/>
		<path class="st5" d="M91.2,67.4c0,0.2,0,0.5,0,0.7c-0.5,0.7-0.6,0.7-1,0c-0.2-0.2-0.3-0.5-0.4-0.7c0,0-0.1,0-0.1,0
			c0,0-0.1,0.1-0.1,0.1c0,0.2,0,0.3,0,0.5c0.1,0.3,0.3,0.6,0.4,0.9c0.2,0.3,0.2,0.6,0.1,0.9c-0.3,0.8,0,1.5,0.5,2.1
			c0,0,0.1,0.1,0.1,0.1c0.8,0.6,1.1,1.4,1.2,2.3l0,0c-0.4,0.2-0.4,0.6-0.5,0.9c-0.4,0.1-0.5-0.2-0.7-0.4c-0.6-0.4-0.6-0.5-0.1-1.1
			c0.1-0.1,0.2-0.2,0.1-0.3c-0.1-0.1-0.2-0.2-0.3-0.2c-0.1,0-0.2,0-0.4,0c-0.2,0-0.4-0.1-0.5-0.3c-0.1-0.4-0.2-0.8-0.3-1.2
			c-0.2-1.5-0.3-3.1-0.5-4.7c0-0.5,0.1-0.6,0.5-0.7c0.1,0,0.2,0,0.2,0c0.8-0.1,0.8-0.1,0.9,0.7c0,0.1,0,0.2,0,0.2
			C90.9,67.7,91.1,67.5,91.2,67.4z"/>
		<path class="st5" d="M171.3,50.5c-0.1,0.1-0.2,0.2-0.3,0.3c-0.2-0.6-0.3-1.3-0.5-1.9c-0.1-0.4-0.3-0.9-0.5-1.2
			c-0.1-0.2-0.3-0.2-0.4,0c-0.2,0.2-0.4,0.2-0.5,0c-0.2-0.2-0.3-0.4-0.4-0.6c-0.5-1-0.9-2.1-1.3-3.2c-0.2-0.5-0.2-0.9,0.3-1.2
			c0.1-0.1,0.2-0.3,0.3-0.4c0.1-0.1,0.3,0,0.3,0c0.2,0.2,0.3,0.4,0.4,0.6C169.9,45.4,170.8,47.9,171.3,50.5z"/>
		<path class="st5" d="M122.5,21.2c0,0.1,0,0.2-0.1,0.2c-0.2,0.2-0.3,0.4-0.5,0.6c-0.2,0.2-0.3,0.4,0,0.6c0.3,0.1,0.3,0.5,0.4,0.7
			c0.1,0.4-0.2,0.7-0.5,0.7c-0.2,0-0.3,0-0.5,0c-0.8,0-1.6,0.1-2.3,0.7c-0.3,0.3-0.7,0.4-1.1,0.5c0,0-0.1-0.1-0.1-0.2
			c0.1-0.1,0.2-0.3,0.3-0.4c0.2-0.2,0.2-0.3,0.1-0.5c-0.1-0.3,0-0.7,0.3-0.8c0.3-0.1,0.6-0.1,0.8-0.2c0.3-0.1,0.6-0.2,0.8-0.5
			c0.2-0.3,0.2-0.5-0.1-0.8c-0.1-0.1-0.2-0.2-0.3-0.2c-0.1-0.2,0-0.5,0.1-0.5c0.7-0.2,1.4-0.4,2.2-0.2
			C122.3,20.9,122.4,21,122.5,21.2z"/>
		<path class="st5" d="M157.7,67.1c0,0.4-0.2,0.8-0.4,1.2c-0.2,0.5-0.4,1.1-0.4,1.7c0,0.2,0,0.4-0.1,0.5c-0.4,0.4-0.4,0.9-0.2,1.4
			c0.1,0.2,0,0.5-0.1,0.7c-0.2,0.4-0.4,0.8-0.6,1.2c-0.1,0.2-0.3,0.4-0.6,0.2c-0.1-0.1-0.2,0.1-0.3,0.2c-0.1,0.2-0.1,0.5-0.1,0.7
			c-0.1,0.5-0.5,0.7-0.9,0.9c-0.2,0.1-0.5-0.2-0.4-0.4c0.4-0.9,0.5-1.8,0.6-2.7c0-0.3,0.2-0.5,0.5-0.5c0.8-0.1,1.1-0.6,1.4-1.3
			c0.1-0.2,0.2-0.5,0.3-0.7c0.3-0.7,0.3-1.3-0.1-2c-0.2-0.3-0.1-0.4,0.2-0.5c0.5-0.1,0.5-0.1,0.6-0.5c0-0.1,0-0.2,0.1-0.4
			c0-0.1,0.1-0.2,0.2-0.2c0.1,0,0.2,0.1,0.2,0.2C157.7,66.9,157.7,67,157.7,67.1z"/>
		<path class="st5" d="M155.3,60.6c0.3,0,0.6,0,0.9,0.1c0.7,0.1,1,0.5,1.2,1.1c0.2,0.9,0,1.7-0.3,2.5c0,0.1-0.2,0.2-0.3,0.1
			c-0.1,0-0.2-0.1-0.2-0.1c-0.4-0.3-0.6-0.8-1.1-1c-0.1-0.1-0.1-0.2,0.1-0.3c0.2,0,0.3-0.1,0.3-0.3c-0.1-0.3-0.2-0.5-0.5-0.5
			c-0.4,0.1-0.8,0.1-1.2-0.1c-0.4-0.1-0.5-0.4-0.5-0.9c0-0.3,0.2-0.5,0.5-0.6C154.6,60.7,154.9,60.7,155.3,60.6z"/>
		<path class="st5" d="M113.5,24.4c-0.1,0-0.3,0-0.3-0.1c0-0.1,0.1-0.2,0.2-0.3c1-1.3,2.3-2.1,3.8-2.7c0.2-0.1,0.3,0,0.4,0.1
			c0,0.1,0,0.2,0,0.4c0,0.3-0.5,0.4-0.5,0.8c0.1,0.1,0.2,0,0.3,0c0.2-0.1,0.4-0.2,0.5,0.1c0.1,0.2-0.1,0.4-0.3,0.5
			c-0.4,0.2-0.8,0.3-1.1,0.6C115.5,23.7,114.6,24.4,113.5,24.4z"/>
		<path class="st5" d="M153.3,69.1c-0.3-0.1-0.5-0.1-0.8-0.2c0.1-0.2,0.2-0.5,0.2-0.7c0-0.9,0.3-1.7,0.6-2.4
			c0.1-0.3,0.1-0.6-0.1-0.8c-0.5-0.6-0.2-1.1,0.2-1.5c0.2-0.2,0.4-0.3,0.7-0.1c0.2,0.1,0.4,0.3,0.5,0.5c0.2,0.2,0.3,0.5,0,0.8
			c-0.4,0.4-0.5,0.9-0.5,1.5c0,0.5,0,1.1,0,1.6l0,0c-0.1-0.1-0.2-0.2-0.3-0.2c-0.2-0.2-0.5-0.2-0.6,0c-0.3,0.3-0.4,0.7-0.3,1.1
			C153.2,68.7,153.3,68.9,153.3,69.1z"/>
		<path class="st5" d="M90,60.9c-0.5-0.3-0.5-0.3-0.8,0.2c-0.1,0.1-0.1,0.2-0.2,0.2c-0.1,0-0.2-0.1-0.2-0.2
			c-0.3-0.9-0.6-1.8-0.2-2.8c0.1-0.4,0.3-0.5,0.6-0.3c0.4,0.1,0.8,0.1,1.1,0.5C90.3,59.3,90.7,60.2,90,60.9z"/>
		<path class="st5" d="M128.5,21.9c-0.6,0.1-0.9,0.1-1.2,0.1c-0.1,0-0.2,0.1-0.2,0.2c-0.3,0.7-0.3,0.7-0.9,0.4
			c-0.5-0.2-0.5-0.3-0.9,0.2c-0.6,0.6-0.9,0.7-1.5,0.4c-0.2-0.1-0.2-0.2-0.2-0.4c0.1-0.2,0.1-0.3,0.2-0.5c0.4-0.9,0.5-1,1.5-0.8
			c0.7,0.2,1.5,0,2.2,0.1C127.7,21.7,128,21.6,128.5,21.9z"/>
		<path class="st5" d="M143.1,81.8c0.1-0.1,0.2-0.3,0.3-0.4c0.3-0.3,0.4-0.3,0.7,0.2c-0.2,0.4-0.2,0.9,0.1,1.3
			c0.2,0.3,0.4,0.7,0.2,1.2c-0.1,0.2-0.3,0.4-0.5,0.2c-0.4-0.2-0.8-0.4-1.3-0.5c-0.3-0.1-0.4-0.3-0.2-0.5c0.2-0.3,0.4-0.5,0.7-0.7
			C143.2,82.3,143.2,82,143.1,81.8z"/>
		<path class="st5" d="M148.9,82.6c-0.1,0.5-0.1,1.1-0.2,1.6c0,0.2-0.1,0.4-0.4,0.4c-0.6-0.1-0.9,0.3-1.3,0.6
			c-0.2,0.2-0.5,0.3-0.8,0.1c-0.1-0.1-0.3-0.1-0.3-0.3c0-0.1,0.1-0.2,0.2-0.3c0.6-0.4,1.1-0.8,1.7-1.2c0.2-0.1,0.4-0.3,0.6-0.4
			C148.6,83,148.4,82.6,148.9,82.6z"/>
		<path class="st5" d="M92.4,54.9c0,0.7,0,1.3,0,2c0,0.4,0,0.7-0.3,1.1c0.1-0.6,0-1.2-0.1-1.9c-0.3,0.3-0.1,0.7-0.4,0.9
			c-0.1,0-0.1,0.1-0.2,0.1c-0.1,0-0.2-0.1-0.2-0.2c0-0.9-0.2-1.7-0.4-2.6c-0.1-0.5-0.2-1,0.1-1.4c0.3,0,0.2,0.2,0.2,0.3
			c0.1,0.5,0.2,1,0.3,1.5C91.7,55.2,91.8,55.3,92.4,54.9z"/>
		<path class="st5" d="M105.9,28.2c0.1,0.1,0.2,0.2,0.4,0.3c0.2,0.1,0.2,0.3,0.1,0.5c-0.2-0.2-0.4-0.2-0.6-0.2
			c-0.6,0-1.2,0.2-1.8,0.5c-0.6,0.4-0.7,0.6-0.2,1.3c0.1,0.2,0.2,0.3,0,0.4c-0.1,0.1-0.3,0.2-0.4,0.2c-0.1,0-0.2,0-0.2-0.1
			c-0.1-0.1-0.1-0.2-0.1-0.4c-0.2-1.2-0.2-1.4,0.8-2.2c0.2-0.2,0.4-0.2,0.7-0.3C105.1,28.3,105.5,28.2,105.9,28.2z"/>
		<path class="st5" d="M97.5,36.4c-0.1-0.1-0.2-0.2-0.3-0.3c0.5-0.6,1.1-1.2,1.6-1.9c0.4-0.6,0.9-1,1.4-1.4c0.1-0.1,0.2-0.1,0.3-0.1
			c0,0,0.1,0.1,0.1,0.2c0,0.1,0,0.2-0.1,0.2c-0.5,0.6-1,1.2-1.4,1.9c-0.1,0.2-0.3,0.4-0.5,0.4C98,35.4,97.8,36,97.5,36.4z"/>
		<path class="st5" d="M150,95.6c-0.1-0.1-0.2-0.2-0.2-0.2c0.5-0.4,1.1-0.8,1.3-1.4c0-0.1,0.2-0.2,0.4-0.3c0.3-0.1,0.5-0.3,0.7-0.5
			c0.1-0.1,0.3-0.4,0.5-0.2c0.1,0.2-0.1,0.4-0.2,0.5C151.7,94.4,150.9,95.1,150,95.6z"/>
		<path class="st5" d="M116,31.2c-0.2,0-0.3,0-0.5,0c0-0.1,0.1-0.2,0.1-0.3c0.1-1,0.8-1.3,1.6-1.5c0.7-0.1,1-0.1,1,0.1
			c-0.1,0.4-0.5,0.4-0.8,0.5c-0.3,0.1-0.6,0.2-0.9,0.3C116.3,30.5,116.1,30.7,116,31.2z"/>
		<path class="st5" d="M120.6,29.6c0,0,0,0.1,0,0.1c-0.4,0.5-0.7,1.1-1.3,1.5c-0.1,0.1-0.3,0.1-0.3,0c-0.1-0.1-0.1-0.3,0-0.3
			c0.3-0.4,0.7-0.8,0.9-1.3c0.1-0.2,0.4-0.2,0.7-0.1C120.5,29.4,120.5,29.5,120.6,29.6z"/>
		<path class="st5" d="M102.6,92c-0.6-0.4-1.1-0.8-1.6-1.4c0,0,0-0.2,0-0.2c0-0.1,0.1-0.1,0.2-0.1c0.7,0,1,0.1,1.2,0.9
			C102.5,91.4,102.8,91.6,102.6,92z"/>
		<path class="st5" d="M150.4,96.7c0.6-0.3,1.2-0.6,1.8-0.8c0.2-0.1,0.4-0.1,0.5,0.2c0.1,0.2,0,0.4-0.2,0.5
			C151.8,96.8,151.2,97,150.4,96.7z"/>
		<path class="st5" d="M159.9,32.1c0.2,0.2,0.3,0.2,0.5,0c0.2-0.1,0.5-0.2,0.7-0.1c0.1,0,0.2,0.1,0.3,0.2c0,0.1,0,0.2-0.1,0.3
			c-0.1,0.1-0.2,0.2-0.4,0.3c-0.3,0.2-0.6,0.2-0.9,0c-0.2-0.1-0.3-0.3-0.4-0.4c-0.1-0.1-0.1-0.2,0-0.3C159.7,32,159.8,32,159.9,32.1
			z"/>
		<path class="st5" d="M147.3,79.3c0-0.1,0-0.2,0-0.2c-0.1-0.8-0.1-0.8-1-1c0,0,0.1-0.1,0.1-0.1c1-0.5,1.3,0,1.8,0.8
			c0,0.1,0,0.2,0,0.4c0,0.2-0.2,0.4-0.4,0.4C147.5,79.6,147.4,79.5,147.3,79.3z"/>
		<path class="st5" d="M163.2,86.5c-0.3,0.4-0.7,0.7-1,1.1c-0.1,0.1-0.2,0.1-0.3,0.1c0-0.1-0.1-0.2-0.1-0.3c0-0.7,0.5-1.1,1-1.4
			c0.1-0.1,0.3,0,0.4,0.1C163.3,86.2,163.3,86.3,163.2,86.5z"/>
		<path class="st5" d="M134.9,86.5c0.1,0.2,0,0.4,0,0.5c-0.1,0.2-0.2,0.5-0.3,0.8c-0.2-0.3-0.4-0.6-0.8-0.5c-0.1,0-0.2,0-0.4-0.1
			c-0.4-0.1-0.7-0.4-0.6-0.5c0.2-0.3,0.5-0.2,0.8-0.2c0.2,0,0.4,0.2,0.7,0.2C134.6,86.7,134.8,86.7,134.9,86.5z"/>
		<path class="st5" d="M162,86c-0.2-0.1-0.3-0.2-0.5-0.2c0.2-0.5,0.4-1.1,0.5-1.6c0-0.3,0.2-0.6,0.3-0.9c0-0.1,0.1-0.1,0.2-0.1
			c0.1,0,0.1,0.1,0.1,0.2c0.1,0.3,0,0.6-0.1,0.8C162.3,84.8,162.1,85.4,162,86z"/>
		<path class="st5" d="M114.3,24.7c0-0.2,0.2-0.4,0.3-0.5c0.6-0.3,1.3-0.3,1.9-0.3c0.1,0,0.2,0,0.2,0c0.1,0,0.2,0.1,0.2,0.2
			c0,0.2-0.1,0.3-0.3,0.3c-0.1,0-0.2,0-0.2,0C115.7,24.3,115,24.5,114.3,24.7z"/>
		<path class="st5" d="M113.6,82.5c0.6-0.4,1.1-0.5,1.7-0.1c0.1,0.1,0.3,0.2,0.2,0.4c0,0.2-0.2,0.2-0.4,0.2
			C114.6,83,114.1,82.7,113.6,82.5z"/>
		<path class="st5" d="M130.5,99.9c0.2,0.4,0.1,0.6-0.3,0.8c-0.5,0.2-1,0.4-1.5,0.4c0-0.1,0-0.2,0-0.2
			C129.3,100.5,129.7,99.9,130.5,99.9z"/>
		<path class="st5" d="M159.7,31.1c-0.1,0-0.1,0.1-0.2,0.1c-0.2,0-0.4,0-0.5-0.1c-0.3-0.3-0.6-0.7-0.8-1c0,0,0-0.1,0-0.1
			c0.1,0,0.2-0.1,0.2-0.1c0.5,0.2,0.9,0.7,1.3,1.1C159.7,31,159.7,31.1,159.7,31.1z"/>
		<path class="st5" d="M115.6,26.2c-0.2,0.1-0.4,0.1-0.5,0.2c-0.4,0-0.7,0.3-1,0.5c-0.1-0.1-0.2-0.2-0.3-0.3
			c0.3-0.2,0.6-0.5,0.8-0.7c0.3-0.2,0.6-0.3,0.9-0.2C115.8,25.7,115.8,25.9,115.6,26.2z"/>
		<path class="st5" d="M165.7,38.8c-0.1-0.3-0.3-0.5-0.3-0.8c-0.1-0.2,0.1-0.4,0.3-0.5c0.2-0.1,0.4,0,0.5,0.2c0.2,0.3,0.2,0.7,0,1
			C166,39,165.8,39,165.7,38.8z"/>
		<path class="st5" d="M89.8,57.1c-0.3-0.3-0.6-0.7-0.6-1.3c0,0,0.1-0.1,0.2-0.2c0,0,0.1,0,0.1,0c0.3,0.4,0.6,0.8,0.6,1.3
			C90,57,89.9,57,89.8,57.1z"/>
		<path class="st5" d="M110.8,79.4c0,0.3,0,0.5-0.3,0.8c-0.2,0.2-0.5,0.3-0.6,0.2c-0.1-0.2,0.1-0.3,0.2-0.5c0.1-0.2,0.2-0.4,0.3-0.6
			c0-0.1,0.1-0.1,0.2-0.1c0.1,0,0.1,0.1,0.1,0.2C110.8,79.3,110.7,79.3,110.8,79.4z"/>
		<path class="st5" d="M165.7,38.8c0.2,0,0.3,0,0.5,0c-0.2,0.5,0.1,0.9,0.4,1.4c-0.8-0.1-1-0.4-1-1.1
			C165.6,39,165.7,38.9,165.7,38.8z"/>
		<path class="st5" d="M154.3,79.6c-0.2,0.4-0.5,0.6-1,0.7c0-0.2,0-0.3,0-0.5c0.1-0.3,0-0.6,0.3-0.7C154,79,154,79.4,154.3,79.6z"/>
		<path class="st5" d="M93.5,78.8c-0.1,0-0.2,0-0.3,0c-0.2-0.3-0.4-0.5-0.5-0.8c-0.1-0.3-0.6-0.4-0.4-0.9c0.4,0.1,0.5,0.4,0.7,0.6
			C93.2,78,93.4,78.4,93.5,78.8z"/>
		<path class="st5" d="M167.1,52.4c0-0.2,0.1-0.3,0.1-0.5c0-0.3,0.2-0.4,0.4-0.5c0.2,0.2,0.2,0.5,0.2,0.8l0,0c0,0.1-0.1,0.3-0.1,0.4
			c0,0.1,0,0.3-0.2,0.3c-0.1,0-0.2-0.1-0.2-0.2C167.2,52.7,167.2,52.5,167.1,52.4z"/>
		<path class="st5" d="M134.6,101.6c0.3-0.2,0.7-0.3,1.1-0.4c0.1,0.2,0.3,0.3,0.1,0.5c-0.2,0.2-0.4,0.3-0.7,0.3
			C134.9,101.9,134.8,101.7,134.6,101.6z"/>
		<path class="st5" d="M143.6,97.5c-0.4,0.4-0.7,0.8-1.2,1c0.2-0.5,0.5-1,0.9-1.3C143.4,97.2,143.5,97.4,143.6,97.5z"/>
		<path class="st5" d="M98.2,86.5c0.2,0.5,0.6,0.9,0.8,1.5c-0.6-0.2-0.8-0.8-1.1-1.3c-0.1-0.1-0.1-0.2,0-0.3
			C97.9,86.4,98,86.5,98.2,86.5z"/>
		<path class="st5" d="M155.6,69.4c-0.1,0.1-0.1,0.2-0.2,0.3c-0.1,0-0.2,0-0.3-0.1c-0.1-0.1-0.1-0.3-0.2-0.4c0-0.2,0.1-0.3,0.3-0.3
			c0.1,0,0.2,0.1,0.3,0.2C155.5,69.1,155.6,69.2,155.6,69.4z"/>
		<path class="st5" d="M114.1,32.1c-0.2,0-0.4,0-0.5,0c0-0.2-0.1-0.3,0.1-0.5c0.3-0.3,0.7-0.5,1.3-0.6
			C114.6,31.6,114.2,31.7,114.1,32.1z"/>
		<path class="st5" d="M128,86.3c0.2,0,0.4,0.2,0.3,0.4c0,0.2-0.2,0.3-0.3,0.2c-0.2,0-0.3-0.1-0.3-0.3
			C127.6,86.5,127.8,86.3,128,86.3z"/>
		<path class="st5" d="M163.2,86.5c0-0.2,0-0.3,0-0.5c0.2-0.1,0.4-0.3,0.6-0.4c0.1-0.1,0.2-0.1,0.3,0c0,0.1,0,0.2,0,0.3
			C163.9,86.3,163.5,86.3,163.2,86.5z"/>
		<path class="st5" d="M99.2,88.2c0.2-0.6,0.3-0.6,0.6-0.3c0.1,0.1,0.2,0.3,0.4,0.5c-0.1,0.1-0.2,0.2-0.3,0.3
			C99.6,88.6,99.4,88.4,99.2,88.2z"/>
		<path class="st5" d="M123.5,101.4c0.1-0.1,0.3-0.2,0.5-0.2c0,0.1,0.1,0.2,0.1,0.3c0,0.2-0.1,0.4-0.3,0.4c-0.3,0-0.3-0.2-0.3-0.4
			C123.5,101.4,123.5,101.4,123.5,101.4z"/>
		<path class="st5" d="M132.1,28.7c-0.1,0-0.3,0-0.2-0.2c0-0.1,0.2-0.1,0.3-0.1c0,0,0.1,0,0.1,0c0.1,0,0.2,0.1,0.2,0.1
			c0,0.2-0.1,0.2-0.2,0.2C132.2,28.7,132.2,28.7,132.1,28.7z"/>
		<path class="st5" d="M149.3,33.8c0.5,0.3,0.5,0.3,0.5,0.8C149.5,34.5,149.3,34.2,149.3,33.8z"/>
		<path class="st5" d="M134.2,100.9c-0.2,0.1-0.4,0.2-0.7,0.2c-0.1,0-0.1-0.1-0.2-0.1c0.1-0.1,0.1-0.1,0.2-0.2
			c0.1-0.1,0.3-0.1,0.4-0.2C134,100.7,134.1,100.8,134.2,100.9z"/>
		<path class="st5" d="M101.8,61.3c-0.1,0-0.1,0.1-0.2,0.1c-0.1,0-0.2-0.1-0.1-0.3c0,0,0.1-0.1,0.2,0
			C101.7,61.2,101.8,61.3,101.8,61.3z"/>
		<path class="st5" d="M161.5,54.6c0.2,0.1,0.3,0.2,0.2,0.4c0,0.1-0.1,0.1-0.2,0.1c-0.2-0.1-0.3-0.2-0.2-0.4
			C161.3,54.7,161.4,54.6,161.5,54.6z"/>
		<path class="st5" d="M97.6,34.8c-0.1,0-0.1,0.1-0.2,0.1c-0.1,0-0.1-0.1-0.1-0.2c0-0.1,0.1-0.1,0.2-0.1
			C97.5,34.7,97.6,34.8,97.6,34.8z"/>
		<path class="st5" d="M104.1,88.7c-0.3,0-0.7,0-1-0.3c0.2-0.1,0.3-0.1,0.5-0.2C103.8,88.4,104,88.6,104.1,88.7z"/>
		<path class="st5" d="M114.5,28.5c0-0.1-0.1-0.1-0.1-0.2c0-0.1,0.1-0.2,0.2-0.2c0,0,0.1,0.1,0.1,0.2
			C114.7,28.5,114.6,28.5,114.5,28.5z"/>
		<path class="st5" d="M163,33.8c-0.1,0-0.2,0-0.2,0c-0.1-0.1-0.1-0.2,0-0.3c0,0,0.2,0,0.2,0.1C163,33.7,163,33.8,163,33.8z"/>
		<path class="st5" d="M156.9,74.7c0,0.1-0.1,0.1-0.1,0.2c0,0-0.1-0.1-0.1-0.1c0-0.1,0.1-0.1,0.1-0.2
			C156.7,74.6,156.8,74.6,156.9,74.7z"/>
		<path class="st5" d="M167.6,51c-0.2-0.3-0.2-0.7-0.2-1C167.6,50.3,167.7,50.7,167.6,51z"/>
		<path class="st5" d="M154.2,67.6c0.1,0,0.2,0.1,0.2,0.2c0,0.1,0,0.2-0.1,0.2c0,0-0.1,0-0.1-0.1C154.3,67.8,154.3,67.7,154.2,67.6
			C154.3,67.6,154.2,67.6,154.2,67.6z"/>
		<path class="st5" d="M159,85.8c0-0.3,0.1-0.6,0.2-0.8C159.2,85.3,159.1,85.6,159,85.8z"/>
		<path class="st5" d="M99.9,88.7c0.2,0.1,0.4,0.3,0.5,0.4C100.1,89.2,100,89,99.9,88.7z"/>
		<path class="st5" d="M146.6,86.3c0,0.2-0.1,0.3-0.1,0.5l0,0c-0.1,0-0.2,0-0.3,0C146.4,86.6,146.5,86.4,146.6,86.3z"/>
		<path class="st5" d="M90,60.9c0.1,0.2,0.2,0.3,0.3,0.5c-0.1,0-0.2,0-0.3,0C90,61.2,90,61.1,90,60.9z"/>
		<path class="st5" d="M96.7,82.3c-0.1-0.2-0.2-0.3-0.2-0.5C96.5,82,96.6,82.1,96.7,82.3z"/>
		<path class="st5" d="M158.7,86.5c0.1-0.2,0.2-0.3,0.2-0.5c0,0.2,0,0.3,0,0.5l0,0C158.9,86.5,158.8,86.5,158.7,86.5z"/>
		<path class="st5" d="M92,74.3c0.1,0,0.1,0,0.2,0C92,74.5,92,74.4,92,74.3L92,74.3z"/>
		<polygon class="st5" points="104.3,51.2 104.3,51.3 104.2,51.3 		"/>
		<path class="st5" d="M146.3,86.7c-0.1,0.2-0.3,0.2-0.5,0.3C146,86.9,146.1,86.8,146.3,86.7z"/>
		<path class="st5" d="M158.2,87c0.1-0.1,0.2-0.2,0.3-0.3C158.4,86.8,158.3,86.9,158.2,87z"/>
		<path class="st5" d="M159,87.2L159,87.2L159,87.2z"/>
		<path class="st5" d="M166.1,79.5c0-0.1,0-0.1,0-0.2C166.1,79.4,166.1,79.4,166.1,79.5z"/>
		<path class="st5" d="M142.8,82c0.1-0.1,0.2-0.1,0.3-0.2C143,81.9,142.9,81.9,142.8,82z"/>
		<path class="st5" d="M167.9,52.3L167.9,52.3L167.9,52.3z"/>
		<path class="st5" d="M109.8,34.2L109.8,34.2C109.8,34.1,109.8,34.2,109.8,34.2z"/>
		<path class="st5" d="M158.5,86.8c0.1-0.1,0.2-0.2,0.2-0.3C158.6,86.6,158.5,86.7,158.5,86.8z"/>
		<path class="st5" d="M90,61.4c0,0.1,0,0.2,0,0.4C89.8,61.6,89.8,61.5,90,61.4z"/>
		<path class="st5" d="M128.2,92.4c-0.1,0-0.2,0-0.3,0c0.7-0.8,1.5-0.8,2.5-0.6c0.1,0,0.1,0.1,0.1,0.2c0,0.1-0.1,0.2-0.1,0.2
			c-0.2,0-0.5,0.1-0.7,0.1C129.2,92.2,128.7,92.3,128.2,92.4z"/>
		<path class="st5" d="M98.7,55.2c0,0,0,0.1,0,0.1c-0.1,0.1-0.1,0.2-0.2,0.3c-0.1,0-0.2-0.1-0.2-0.2c0-0.3,0-0.6-0.1-1
			c0-0.2-0.1-0.5-0.2-0.7c0.1-0.1,0.1-0.2,0.2-0.2c0.1,0,0.2,0.1,0.2,0.2c0,0.3,0,0.6,0,0.8C98.5,54.8,98.5,55,98.7,55.2z"/>
		<path class="st5" d="M102.4,82.3c0.2,0,0.4,0,0.6,0.1c0.4,0.2,0.4,0.3,0.2,0.9C102.7,83.1,102.5,82.7,102.4,82.3z"/>
		<path class="st5" d="M125.1,91.6c0,0.1-0.1,0.2-0.2,0.2c-0.1,0-0.3-0.1-0.3-0.2c0-0.1,0.1-0.2,0.2-0.2
			C125,91.4,125.1,91.5,125.1,91.6z"/>
		<path class="st5" d="M99.7,70.4c-0.1-0.1-0.2-0.2-0.3-0.3c0,0,0-0.1,0-0.1c0,0,0.1,0,0.1,0c0.1,0.1,0.3,0.3,0.4,0.4
			C99.8,70.4,99.8,70.4,99.7,70.4z"/>
		<path class="st5" d="M140.3,91.1c-0.1,0-0.1,0.1-0.2,0.1c-0.1,0-0.1-0.1-0.1-0.2c0,0,0.2-0.1,0.2-0.1
			C140.3,90.9,140.3,91,140.3,91.1z"/>
		<polygon class="st5" points="112.6,81.3 112.5,81.2 112.6,81.3 		"/>
		<path class="st5" d="M103.6,79.6c-0.1-0.1-0.1-0.2-0.2-0.3C103.5,79.4,103.5,79.5,103.6,79.6z"/>
		<path class="st5" d="M124.5,90C124.5,90,124.5,90,124.5,90L124.5,90z"/>
		<path class="st5" d="M103.4,79.1c0.1-0.1,0.1-0.1,0.2,0C103.6,79.1,103.5,79.1,103.4,79.1z"/>
		<path class="st5" d="M98.9,55.2c-0.1,0-0.2,0-0.3,0C98.7,55.1,98.8,55.1,98.9,55.2z"/>
		<path class="st5" d="M103.9,79.1c0.1,0.1,0.2,0.1,0.3,0.2C104.1,79.2,104,79.1,103.9,79.1z"/>
		<path class="st5" d="M99.1,55.5c-0.1-0.1-0.1-0.2-0.2-0.2C99,55.3,99,55.4,99.1,55.5z"/>
		<path class="st5" d="M109,94c0.1,0,0.2,0.1,0.3,0.2c0,0.2-0.1,0.3-0.2,0.3c-0.1,0-0.2-0.1-0.2-0.2C108.7,94.2,108.9,94,109,94z"/>
		<path class="st5" d="M114.8,95.2c0.1,0,0.1,0,0.2,0C114.8,95.4,114.9,95.2,114.8,95.2C114.8,95.2,114.8,95.2,114.8,95.2z"/>
		<polygon class="st5" points="105.1,91.4 105.1,91.4 105.1,91.5 		"/>
		<path class="st5" d="M101.2,77.8c-0.3-0.7-0.4-1.4-0.4-2.1c0-0.2-0.2-0.5,0.1-0.6c0.3-0.1,0.4,0.2,0.6,0.4c0.4,0.5,0.8,1,1.1,1.6
			c0.1,0.3,0.2,0.5,0,0.8c-0.1,0.1-0.1,0.2-0.2,0.3c-0.2-0.1-0.3-0.2-0.5-0.3c-0.2-0.1-0.3-0.1-0.5,0l0,0
			C101.3,77.9,101.2,77.9,101.2,77.8z"/>
		<path class="st5" d="M102.4,78.1c0.1-0.1,0.2-0.2,0.2-0.3c0.1,0.2,0.2,0.5,0.3,0.7c0.1,0.2,0,0.4-0.1,0.6
			c-0.1,0.1-0.2,0.3-0.4,0.1c-0.1-0.1-0.2-0.2-0.2-0.3C102.2,78.6,102.3,78.3,102.4,78.1z"/>
		<path class="st5" d="M100.2,73.5c0.1,0,0.2,0.1,0.3,0.2c0,0.1,0,0.2-0.2,0.2c-0.1,0-0.2-0.1-0.2-0.2
			C100.1,73.6,100.1,73.5,100.2,73.5z"/>
		<path class="st5" d="M106.4,83.9c-0.2-0.1-0.2-0.2-0.2-0.4c0,0,0.1-0.1,0.2-0.1c0.2,0,0.3,0.2,0.2,0.3
			C106.6,83.9,106.5,83.9,106.4,83.9z"/>
		<path class="st5" d="M98.8,70c0,0.1-0.1,0.1-0.2,0.1c0,0-0.1-0.1-0.1-0.1c0-0.1,0-0.2,0.1-0.1C98.7,69.8,98.8,69.9,98.8,70z"/>
		<path class="st5" d="M101.4,77.8c0.2-0.2,0.3-0.2,0.5,0C101.7,77.8,101.6,77.8,101.4,77.8z"/>
		<path class="st5" d="M101.2,77.8c0.1,0,0.1,0,0.2,0C101.3,77.9,101.2,77.9,101.2,77.8z"/>
		<path class="st5" d="M99.6,47.2c-0.1,0-0.1,0.1-0.2,0.1c-0.1,0-0.2-0.1-0.1-0.2c0-0.1,0.1-0.1,0.2-0.1
			C99.5,47.1,99.6,47.2,99.6,47.2z"/>
	</g>
</g>
</svg>
