<?xml version="1.0" encoding="utf-8"?>
<!-- Generator: Adobe Illustrator 22.1.0, SVG Export Plug-In . SVG Version: 6.00 Build 0)  -->
<svg version="1.1" id="Layer_1" xmlns="http://www.w3.org/2000/svg" xmlns:xlink="http://www.w3.org/1999/xlink" x="0px" y="0px"
	 viewBox="0 0 64 64" style="enable-background:new 0 0 64 64;" xml:space="preserve">
<title>Artboard 1</title>
<g id="Layer_2_1_">
	<g>
		<path d="M43.9,50.4l-1-0.7c3-4.4,2.7-7.9,1.6-9.6c-0.6-0.8-1.4-1.2-2.2-1c-1.3,0.3-2.9,2.1-3.6,6.4c-0.4,2.6-1.4,3.1-2.1,3.1
			c-1.3-0.1-2.7-2-3.7-4.8c-1,0.7-1.7,1.2-2.1,1.5l-0.2,0.1l-0.2,0c-3.5-0.4-17.6-2.4-24.5-5.7l-0.2,0.5l-1.1-0.5l0.3-0.6
			C3,38.2,2,37.2,1.9,36c-0.1-1.8,1.9-3.4,6.3-5L19.1,6l0.6,0.4c0.4,0.3,9.4,6.5,8.3,13.5c-0.8,4.7-6,8.5-15.6,11.2
			c-1.2,0.3-2.3,0.7-3.2,1l-2.8,6.6c5.3,2.4,16.2,4.5,23.9,5.5c0.7-0.5,1.5-1,2.2-1.6c-0.5-1.7-0.8-3.6-0.9-5.6
			c-0.3-4.8,0.1-20.9,19.7-24.4c6.4-1.1,9.8-0.7,10.7,1.5c2.5,5.9-19.3,22.6-28,28.9c0.9,2.8,2.1,4.3,2.7,4.4c0.2,0,0.6-0.5,0.9-2
			c0.9-6,3.5-7.2,4.5-7.4c1.3-0.3,2.7,0.3,3.5,1.5C46.8,41.4,47.2,45.4,43.9,50.4z M56.8,13.2c-1.3,0-3.1,0.2-5.4,0.6
			c-18.1,3.2-19.1,17.2-18.7,23c0.1,1.8,0.4,3.5,0.8,4.9c12.6-9.3,28.9-23.1,27.2-27.2C60.5,14,59.6,13.2,56.8,13.2z M7.5,32.7
			c-3.9,1.6-4.4,2.8-4.3,3.3c0.1,0.7,0.8,1.4,2,2.1L7.5,32.7z M19.6,7.9L9.8,30.5c0.7-0.2,1.4-0.4,2.2-0.7c9.1-2.5,14.1-6,14.7-10.2
			C27.6,14.5,21.6,9.4,19.6,7.9z"/>
	</g>
</g>
</svg>
