<?xml version="1.0" encoding="utf-8"?>
<!-- Generator: Adobe Illustrator 22.1.0, SVG Export Plug-In . SVG Version: 6.00 Build 0)  -->
<svg version="1.1" id="Layer_1" xmlns="http://www.w3.org/2000/svg" xmlns:xlink="http://www.w3.org/1999/xlink" x="0px" y="0px"
	 viewBox="0 0 500 500" style="enable-background:new 0 0 500 500;" xml:space="preserve">
<style type="text/css">
	.st0{fill:#EB3C96;}
</style>
<g>
	<path class="st0" d="M63.4,272c-1.6-1.3-2.3-3.2-2.3-5.6v-40.1c0-0.9,0.4-1.3,1.3-1.3h10.8c3.9,0,7.3,1.1,10,3.4L96.6,239
		c3.3,2.6,6.9,4.7,10.7,6.2c3.8,1.6,8.3,2.4,13.5,2.4c5.2,0,9.7-0.8,13.5-2.4c3.8-1.5,7.4-3.6,10.7-6.2l15.9-12.8
		c0.5-0.4,1-0.8,1.5-1.1c0.4-0.1,0.9-0.2,1.2-0.2h8c2.7,0,4.9,0.7,6.5,2c1.6,1.3,2.3,3.2,2.3,5.6v40.1c0,0.9-0.4,1.3-1.3,1.3h-5.5
		c-2.8,0-4.9-0.7-6.5-2c-1.6-1.3-2.3-3.2-2.3-5.6v-8.1c0-2.1-0.8-3.8-2.3-5.2c-1.5-1.3-3.5-2-5.9-2c-1.9,0-3.7,0.3-5.2,1
		c-1.8,0.7-3.4,1.6-4.9,2.6c-1.6,1.1-3,2.2-4.5,3.3c-1,0.9-2.4,2-4,3.3l-4.3,3.4c-1.9,1.5-3.3,2.5-4.2,3.1c-1.6,1.1-3.1,1.8-4.2,2.2
		c-1.4,0.6-2.9,0.9-4.5,0.9c-1.5,0-3-0.3-4.5-0.9c-1.2-0.4-2.6-1.1-4.2-2.2c-1-0.6-2.4-1.6-4.2-3.1l-4.3-3.4c-1.6-1.3-3-2.4-4-3.3
		c-1.4-1.1-2.9-2.2-4.5-3.3c-1.5-1-3.1-1.9-4.9-2.6c-1.6-0.6-3.3-1-5.2-1c-2.4,0-4.3,0.7-5.9,2.1c-1.5,1.4-2.3,3.1-2.3,5.1v14.3
		c0,0.9-0.4,1.3-1.3,1.3h-5.5C67.2,274,65,273.4,63.4,272z"/>
	<path class="st0" d="M204.5,270.2c-5-2.5-8.9-6-11.9-10.3c-2.9-4.4-4.4-9.1-4.4-14.1v-19.4c0-0.9,0.4-1.3,1.3-1.3h23.6
		c5.4,0,10.5,1.2,15.6,3.6c5,2.4,9.1,5.5,12.2,9.4c3.1,3.9,4.7,7.9,4.7,12.1c0,4.3-2.5,6.4-7.5,6.4h-16c-2,0-4-0.4-5.9-1.3
		c-1.9-0.9-3.4-2.1-4.6-3.7c-1.2-1.6-1.7-3.3-1.7-5.1c0-0.8,0.5-1.2,1.6-1.2h16.7c-1.7-2.4-3.8-4.3-6.4-5.6
		c-2.5-1.3-5.1-1.9-7.8-1.9c-3.4,0-6,0.7-7.8,2.1c-1.7,1.4-2.6,3.4-2.6,6c0,2.6,0.8,5.1,2.3,7.5c1.5,2.4,3.6,4.3,6.2,5.8
		c2.6,1.5,5.4,2.2,8.4,2.2h14.5c2.7,0,4.9,0.7,6.5,2c1.6,1.3,2.3,3.2,2.3,5.6v3.9c0,0.8-0.5,1.2-1.6,1.2h-21.9
		C214.8,274,209.4,272.8,204.5,270.2z"/>
	<path class="st0" d="M255.1,272c-1.6-1.3-2.3-3.2-2.3-5.6v-40.1c0-0.9,0.4-1.3,1.3-1.3h22.3c6.2,0,11.9,1.3,17,3.8
		c5.1,2.5,9,5.9,11.9,10.1c2.9,4.2,4.4,8.6,4.4,13.3c0,0.8-0.4,1.2-1.3,1.2h-8.7c-1.7,0-3.1-0.3-4.1-0.9c-1-0.6-1.7-1.5-2.2-2.7
		c-1.5-3.7-3.6-6.6-6.5-8.8c-2.8-2.2-6-3.3-9.5-3.3c-2.9,0-5.1,0.8-6.7,2.3c-1.6,1.5-2.3,3.5-2.3,6v26.7c0,0.9-0.4,1.3-1.3,1.3h-5.5
		C258.8,274,256.7,273.4,255.1,272z"/>
	<path class="st0" d="M334.5,271c-5.1-2.7-9.3-6.2-12.4-10.6c-3.1-4.4-4.7-9.1-4.7-14.1v-19.9c0-0.9,0.4-1.3,1.3-1.3h23.3
		c4,0,7.9,0.7,11.8,2.1c3.8,1.4,7.4,3.4,10.7,5.9c0.8,0.6,0.9,1.2,0.3,1.7l-5.9,5c-1.5,1.3-3,1.9-4.5,1.9c-1,0-2.2-0.4-3.6-1.2
		c-3-1.9-5.9-2.8-8.8-2.8c-2.8,0-4.9,0.8-6.6,2.3c-1.6,1.5-2.5,3.5-2.5,5.9c0,2.4,0.9,4.9,2.7,7.5c1.8,2.6,4,4.7,6.7,6.4
		c2.7,1.7,5.4,2.5,8,2.5c2,0,3.7-0.4,5.2-1.3c1.5-0.9,2.5-2.1,3.1-3.8c1-2.4,3-3.6,6.2-3.6h8.7c0.8,0,1.2,0.4,1.2,1.1
		c0,3.7-1.1,7-3.2,10.1c-2.1,3.1-5,5.6-8.8,7.4c-3.7,1.8-7.9,2.7-12.5,2.7C344.9,275,339.6,273.7,334.5,271z"/>
	<path class="st0" d="M384.4,272c-1.6-1.3-2.3-3.2-2.3-5.6v-40.1c0-0.9,0.4-1.3,1.3-1.3h5.5c2.7,0,4.9,0.7,6.5,2
		c1.6,1.3,2.3,3.2,2.3,5.6v22.7l28.1-27.8c1.6-1.7,3.9-2.5,6.8-2.5h5c0.9,0,1.3,0.4,1.3,1.3v4.5c0,2.1-0.8,4-2.5,5.6l-9.6,9.2
		c-1.4,1.4-2.1,2.8-2.1,4.1c0,1.5,0.7,2.8,2.1,4l9.6,8.2c1.6,1.4,2.5,3.3,2.5,5.7v5c0,0.9-0.4,1.3-1.3,1.3h-6.4
		c-2.8,0-4.9-0.7-6.6-2.1l-8.4-7.5c-0.7-0.6-1.5-1.1-2.1-1.4c-0.7-0.3-1.5-0.4-2.3-0.4c-1.6,0-3.1,0.6-4.2,1.8l-8.7,8.5
		c-0.4,0.4-0.8,0.8-1.2,0.9c-0.3,0.2-0.8,0.2-1.4,0.2h-5.5C388.1,274,385.9,273.4,384.4,272z"/>
</g>
</svg>
