<?xml version="1.0" encoding="utf-8"?>
<!-- Generator: Adobe Illustrator 22.1.0, SVG Export Plug-In . SVG Version: 6.00 Build 0)  -->
<svg version="1.1" id="Layer_1" xmlns="http://www.w3.org/2000/svg" xmlns:xlink="http://www.w3.org/1999/xlink" x="0px" y="0px"
	 viewBox="0 0 500 500" style="enable-background:new 0 0 500 500;" xml:space="preserve">
<style type="text/css">
	.st0{fill:#00A56E;}
	.st1{fill:#FFFFFF;}
	.st2{fill:#333333;}
</style>
<g>
	<path class="st0" d="M181.8,171.7c0-37.9,30.7-68.5,68.6-68.5c37.9,0,68.6,30.7,68.6,68.5c0,37.8-30.7,68.5-68.6,68.5
		C212.4,240.2,181.8,209.6,181.8,171.7"/>
	<g>
		
			<image style="overflow:visible;opacity:0.21;" width="520" height="493" xlink:href="83EC0594.png"  transform="matrix(0.24 0 0 0.24 198.84 125.64)">
		</image>
		<g>
			<polygon class="st1" points="297.6,162.4 282.5,134.8 266.4,178.8 257.5,203.1 254.4,187 250.3,166 246.2,187 243.1,203.1 
				234.2,178.8 218.1,134.8 203,162.4 224.1,173 217,184.7 250.3,222.8 283.6,184.7 276.5,173 			"/>
		</g>
	</g>
	<g>
		<path class="st2" d="M92.9,340.9h-0.5c-0.7,0-1.4-0.2-2-0.7l-0.1-0.1c-0.2-0.1-0.4-0.3-0.6-0.6c-0.2-0.2-0.4-0.5-0.4-0.7l-0.2-0.5
			l-11.5-27.4L66,338.3c0,0.2-0.2,0.5-0.3,0.8c-0.2,0.4-0.5,0.7-0.7,0.9l-0.5,0.5h-0.3c-1.2,0.6-2.8,0.4-3.9-0.4l-0.4-0.4
			c-0.5-0.5-0.8-1-0.9-1.7l-20.1-47.7c-0.4-0.8-0.5-1.9-0.1-2.8c0.3-0.9,1-1.7,1.9-2c0.4-0.2,1-0.3,1.5-0.3c1.5,0,2.8,0.9,3.3,2.2
			l17,40.4l11.7-27.5c0.7-1.3,2-2.1,3.3-2.1c1.5,0,2.8,0.8,3.5,2.1l0.1,0.2l11.5,27.4l17-40.4c0.9-1.8,3-2.6,4.9-1.8
			c0.9,0.4,1.6,1.1,2,2c0.3,0.9,0.3,1.9-0.1,2.8L96,338.5c-0.6,1.2-1.7,2.1-2.9,2.3L92.9,340.9z"/>
		<path class="st2" d="M152.7,340.9c-2,0-3.6-1.7-3.6-3.6v-20.4c0-5.2-4.1-8.9-9.8-8.9c-5.6,0-9.7,3.7-9.7,8.9v20.6
			c0,0.2,0,0.4-0.1,0.6l0,0.2l-0.2,0.3c0,0.1-0.1,0.3-0.3,0.5c-0.4,0.7-1.1,1.3-1.9,1.6c-0.3,0.2-0.6,0.2-0.9,0.2h-0.4
			c-1,0-2-0.4-2.7-1.2l-0.2-0.3c-0.3-0.4-0.4-0.7-0.5-1.1c-0.2-0.5-0.2-0.9-0.2-1.2v-48.7c0-2,1.7-3.6,3.6-3.6c2,0,3.7,1.6,3.7,3.6
			v15.1c2.8-2,6.2-3,9.7-3c9.8,0,17.1,7,17.1,16.2v20.4C156.4,339.2,154.7,340.9,152.7,340.9"/>
		<path class="st2" d="M170.9,297.8c-2,0-3.6-1.8-3.6-3.8v-1.7c0-2,1.7-3.6,3.6-3.6c2,0,3.7,1.6,3.7,3.6v1.7
			C174.6,296.1,172.9,297.8,170.9,297.8"/>
		<path class="st2" d="M170.9,340.9c-2,0-3.6-1.7-3.6-3.6v-33c0-2,1.6-3.6,3.6-3.6c2.1,0,3.7,1.6,3.7,3.6v33
			C174.6,339.2,172.9,340.9,170.9,340.9"/>
		<path class="st2" d="M198.2,340.9c-4.7,0-8.3-3.5-8.3-8.2v-24.8h-2.7c-2.4,0-3.6-1.2-3.6-3.6c0-2.4,1.2-3.6,3.6-3.6h2.7v-11.7
			c0-1.9,1.7-3.6,3.6-3.6c2,0,3.8,1.7,3.8,3.6v11.7h2.9c1.9,0,3.6,1.7,3.6,3.6c0,1.9-1.7,3.6-3.6,3.6h-2.9v24.8
			c0,0.6,0.8,0.8,0.9,0.8h0c1.9,0,3.7,1.8,3.7,3.7C201.9,339.1,200.1,340.9,198.2,340.9"/>
		<path class="st2" d="M219,316.1h22.9c-1.8-4.9-6.3-8.2-11.3-8.2C225.3,307.9,220.8,311.1,219,316.1 M230.5,340.9
			c-10.8,0-19.6-9-19.6-20.1c0-11.1,8.8-20.2,19.6-20.2c10.3,0,18.6,8,19.5,18.7l0,0.4c0,1.9-1.6,3.5-3.6,3.5h-27.9
			c1.2,6,6.2,10.3,12.1,10.3c4.2,0,8.1-2.2,10.2-5.7c0.6-1.1,1.8-1.7,3.1-1.7c0.7,0,1.3,0.2,1.9,0.5l0.1,0.1c1.6,1.2,2.1,3.3,1.1,5
			C243.3,337.5,237.1,340.9,230.5,340.9"/>
		<path class="st2" d="M287.9,340.9c-16,0-29-12.7-29-28.2c0-15.6,13-28.4,29-28.5c6.5,0,12.9,2.2,18,6.2c0.9,0.7,1.4,1.7,1.4,2.8
			c0,0.9-0.3,1.8-0.8,2.4c-0.7,0.9-1.7,1.5-2.9,1.5c-0.8,0-1.6-0.3-2.3-0.8c-3.9-3-8.6-4.7-13.5-4.7c-11.9,0-21.7,9.5-21.7,21.2
			c0,11.5,9.7,20.8,21.7,20.8c5,0,9.7-1.6,13.3-4.6l0.2-0.1c0.7-0.5,1.4-0.7,2.2-0.7c1.2,0,2.3,0.5,2.9,1.5c0.6,0.6,0.9,1.5,0.9,2.5
			c-0.1,1.1-0.6,2.1-1.5,2.8C300.8,338.7,294.5,340.9,287.9,340.9"/>
		<path class="st2" d="M333.1,307.8c-6.4,0-11.9,5.9-11.9,12.9c0,7.1,5.3,12.8,11.9,12.8c6.6,0,11.9-5.8,11.9-12.8
			C345,313.7,339.6,307.8,333.1,307.8 M333.1,340.9c-10.6,0-19.2-9-19.2-20.1c0-11.1,8.6-20.1,19.2-20.1c10.6,0,19.2,9,19.2,20.1
			C352.3,331.8,343.7,340.9,333.1,340.9"/>
		<path class="st2" d="M377.7,307.8c-6.6,0-11.9,5.8-11.9,12.9c0,7.1,5.3,12.8,11.9,12.8c6.6,0,11.9-5.8,11.9-12.8
			C389.5,313.6,384.2,307.8,377.7,307.8 M393.2,340.9c-2,0-3.6-1.7-3.6-3.6v-0.8c-3.4,2.9-7.6,4.4-11.9,4.4
			c-10.6,0-19.2-9-19.2-20.1c0-11.1,8.6-20.1,19.2-20.1c4.3,0,8.5,1.5,11.9,4.4v-0.7c0-2,1.6-3.6,3.6-3.6c2,0,3.6,1.6,3.6,3.6v33
			C396.8,339.2,395.1,340.9,393.2,340.9"/>
		<path class="st2" d="M418.3,340.9c-4.7,0-8.3-3.5-8.3-8.2v-24.8h-2.7c-2.4,0-3.6-1.2-3.6-3.6c0-2.4,1.2-3.6,3.6-3.6h2.7v-11.7
			c0-1.9,1.7-3.6,3.6-3.6c2,0,3.8,1.7,3.8,3.6v11.7h2.9c1.9,0,3.6,1.7,3.6,3.6c0,1.9-1.7,3.6-3.6,3.6h-2.9v24.8
			c0,0.6,0.8,0.8,0.9,0.8c1.9,0,3.7,1.8,3.7,3.7C422,339.1,420.2,340.9,418.3,340.9"/>
		<path class="st2" d="M447,340.9L447,340.9c-5.1-0.1-10.1-2-14.7-5.6l-0.1-0.1c-1.5-1.3-1.6-3.4-0.4-4.9c0.7-0.9,1.7-1.3,2.8-1.3
			c0.8,0,1.6,0.3,2.3,0.8c3.5,2.6,6.9,3.9,10.1,3.9c2.2,0,4.4-0.7,5.8-1.8l0.1-0.1c1.2-0.8,1.9-1.9,1.9-3c0-1-0.4-1.7-1.9-3.1
			c-0.7-0.5-2.6-1.6-6.9-2.3l-0.4-0.1c-3.1-0.6-6.3-1.4-8.7-3.1c-3-1.8-4.8-4.8-4.8-8.1c0-3.3,1.7-6.4,4.7-8.7
			c2.7-1.8,6.2-2.8,10.1-2.8c5.2,0,8.8,2.3,11.7,4.2l0.2,0.1c1.6,1.2,2.1,3.4,1,5c-0.7,1-1.8,1.7-3.1,1.7c-0.7,0-1.4-0.2-2-0.6
			l-0.3-0.2c-2.5-1.6-4.8-3.2-7.7-3.2c-2.4,0-4.4,0.6-5.8,1.7c-1,0.8-1.6,1.8-1.6,2.7c0,0.6,0.1,1.2,1.4,2.2c1.4,1,3.7,1.8,6.5,2.2
			l0.2,0c3.5,0.5,6.6,1.6,9.5,3.2l0.1,0.1c3,2,4.9,5.4,4.9,9c0,3.4-1.7,6.4-4.9,8.9C454.2,339.8,450.8,340.9,447,340.9"/>
		<rect x="207.2" y="391.6" class="st2" width="2.7" height="4.6"/>
		<rect x="207.2" y="391.6" class="st2" width="2.7" height="4.6"/>
		<polygon class="st2" points="229.6,369 229.6,396.2 244.5,396.2 244.5,393.9 232.4,393.9 232.4,383.7 244.1,383.7 244.1,381.3 
			232.4,381.3 232.4,371.6 244.5,371.6 244.5,369 		"/>
		<polygon class="st2" points="229.6,369 229.6,396.2 244.5,396.2 244.5,393.9 232.4,393.9 232.4,383.7 244.1,383.7 244.1,381.3 
			232.4,381.3 232.4,371.6 244.5,371.6 244.5,369 		"/>
		<path class="st2" d="M254.5,378.7v17.5h-2.7v-17.5h-3.1v-2.5h3.1c-0.1-4.6,2.5-7.1,7.7-7.1v2.5c-3.7,0-5,1.2-5,4.6h5v2.5H254.5z"
			/>
		<path class="st2" d="M254.5,378.7v17.5h-2.7v-17.5h-3.1v-2.5h3.1c-0.1-4.6,2.5-7.1,7.7-7.1v2.5c-3.7,0-5,1.2-5,4.6h5v2.5H254.5z"
			/>
		<path class="st2" d="M271.1,378.7v17.5h-2.7v-17.5h-3.1v-2.5h3.1c-0.1-4.6,2.5-7.1,7.7-7.1v2.5c-3.7,0-5,1.2-5,4.6h5v2.5H271.1z"
			/>
		<path class="st2" d="M271.1,378.7v17.5h-2.7v-17.5h-3.1v-2.5h3.1c-0.1-4.6,2.5-7.1,7.7-7.1v2.5c-3.7,0-5,1.2-5,4.6h5v2.5H271.1z"
			/>
		<path class="st2" d="M288.9,378.2c-3.8,0-6.9,2.5-7.6,6.3h15.4C295.8,380.6,292.8,378.2,288.9,378.2 M281.2,387.1
			c0.2,4,3.7,7.2,7.8,7.2c3.1,0,5.9-1.9,7-4.6h2.8c-1.3,3.8-5.2,7.1-9.8,7.1c-6,0-10.7-4.8-10.7-10.7c0-6,4.6-10.5,10.5-10.5
			c6,0,10.5,4.3,10.5,11.4H281.2z"/>
		<path class="st2" d="M288.9,378.2c-3.8,0-6.9,2.5-7.6,6.3h15.4C295.8,380.6,292.8,378.2,288.9,378.2 M281.2,387.1
			c0.2,4,3.7,7.2,7.8,7.2c3.1,0,5.9-1.9,7-4.6h2.8c-1.3,3.8-5.2,7.1-9.8,7.1c-6,0-10.7-4.8-10.7-10.7c0-6,4.6-10.5,10.5-10.5
			c6,0,10.5,4.3,10.5,11.4H281.2z"/>
		<path class="st2" d="M314.9,396.9c-6.2,0-11-4.8-11-10.6c0-6,4.8-10.5,10.8-10.5c4.5,0,8.4,2.6,10,6.7h-3.1c-1.5-2.7-4-4.1-7-4.1
			c-4.5,0-8,3.6-8,8c0,4.4,3.6,8,8.1,8c2.8,0,4.8-1,6.9-3.9h3.1C322.3,394.9,319.1,396.9,314.9,396.9"/>
		<path class="st2" d="M314.9,396.9c-6.2,0-11-4.8-11-10.6c0-6,4.8-10.5,10.8-10.5c4.5,0,8.4,2.6,10,6.7h-3.1c-1.5-2.7-4-4.1-7-4.1
			c-4.5,0-8,3.6-8,8c0,4.4,3.6,8,8.1,8c2.8,0,4.8-1,6.9-3.9h3.1C322.3,394.9,319.1,396.9,314.9,396.9"/>
		<polygon class="st2" points="332.5,369 332.5,376.1 328.1,376.1 328.1,378.7 332.5,378.7 332.5,396.2 335.2,396.2 335.2,378.7 
			339.7,378.7 339.7,376.1 335.2,376.1 335.2,369 		"/>
		<polygon class="st2" points="332.5,369 332.5,376.1 328.1,376.1 328.1,378.7 332.5,378.7 332.5,396.2 335.2,396.2 335.2,378.7 
			339.7,378.7 339.7,376.1 335.2,376.1 335.2,369 		"/>
		<path class="st2" d="M344,396.2h2.7v-20.1H344V396.2z M344,374h2.7v-4.7H344V374z"/>
		<path class="st2" d="M344,396.2h2.7v-20.1H344V396.2z M344,374h2.7v-4.7H344V374z"/>
		<polygon class="st2" points="367.8,376.1 360.6,393.2 353.5,376.1 350.8,376.1 359.3,396.2 362.1,396.2 370.6,376.1 		"/>
		<polygon class="st2" points="367.8,376.1 360.6,393.2 353.5,376.1 350.8,376.1 359.3,396.2 362.1,396.2 370.6,376.1 		"/>
		<path class="st2" d="M383.4,378.2c-3.8,0-6.9,2.5-7.6,6.3h15.4C390.3,380.6,387.3,378.2,383.4,378.2 M375.7,387.1
			c0.2,4,3.7,7.2,7.8,7.2c3.1,0,5.9-1.9,7-4.6h2.8c-1.3,3.8-5.2,7.1-9.8,7.1c-6,0-10.6-4.8-10.6-10.7c0-6,4.6-10.5,10.5-10.5
			c6,0,10.5,4.3,10.5,11.4H375.7z"/>
		<path class="st2" d="M383.4,378.2c-3.8,0-6.9,2.5-7.6,6.3h15.4C390.3,380.6,387.3,378.2,383.4,378.2 M375.7,387.1
			c0.2,4,3.7,7.2,7.8,7.2c3.1,0,5.9-1.9,7-4.6h2.8c-1.3,3.8-5.2,7.1-9.8,7.1c-6,0-10.6-4.8-10.6-10.7c0-6,4.6-10.5,10.5-10.5
			c6,0,10.5,4.3,10.5,11.4H375.7z"/>
		<path class="st2" d="M113.1,383.3h-3.2v10.6h3.7c5.6,0,8-1.4,8-5.3C121.6,383.5,118,383.3,113.1,383.3 M113.2,371.6h-3.3v9.2h3.3
			c5.1,0,6.9-1.1,6.9-4.6C120.1,372.8,118.7,371.6,113.2,371.6 M113.9,396.2h-6.7V369h6.4c6.6,0,9.3,2.5,9.3,7.1
			c0,2.7-0.9,4.4-3,5.8c3.2,1.2,4.6,3.3,4.6,6.5C124.4,393.9,121.5,396.2,113.9,396.2"/>
		<path class="st2" d="M139,378.2c-3.8,0-6.9,2.5-7.6,6.3h15.4C145.8,380.6,142.9,378.2,139,378.2 M131.3,387.1
			c0.2,4,3.7,7.2,7.9,7.2c3,0,5.9-1.9,7-4.6h2.8c-1.3,3.8-5.2,7.1-9.8,7.1c-6,0-10.6-4.8-10.6-10.7c0-6,4.6-10.5,10.5-10.5
			c6,0,10.5,4.3,10.5,11.4H131.3z"/>
		<path class="st2" d="M182.2,373.3c-2.1-1.2-4.6-1.7-8.8-1.7h-3.8v22.3h3.8c4.8,0,7.6-0.7,9.8-2.5c2.5-1.9,3.9-5.1,3.9-8.7
			C187.1,378.7,185.3,375.2,182.2,373.3 M174.2,396.2h-7.3V369h6.4c4.9,0,7.8,0.6,10.4,2.2c4.1,2.3,6.2,6.4,6.2,11.6
			C189.9,390.6,184.8,396.2,174.2,396.2"/>
		<path class="st2" d="M198,384.5v11.7h-2.7v-20.1h2.7v2.9c1.1-2.3,2.8-3.2,5.7-3.4v2.7C199.9,378.8,198,380.7,198,384.5"/>
	</g>
</g>
</svg>
